<svg width="49" height="37" viewBox="0 0 49 37" fill="none" xmlns="http://www.w3.org/2000/svg">
<rect x="0.75" y="17.8457" width="6.39041" height="15.5959" stroke="#021205" stroke-width="1.5" stroke-linejoin="round"/>
<path d="M7.89062 29.5897L27.6167 35.5075L48.0002 25.6445" stroke="#021205" stroke-width="1.5" stroke-linecap="round" stroke-linejoin="round"/>
<path d="M7.89062 21.041H23.6714L32.2194 27.6164L28.2742 29.589L19.7262 24.9862" stroke="#021205" stroke-width="1.5" stroke-linecap="round" stroke-linejoin="round"/>
<path d="M29.5898 25.6438L46.0282 23.0137L48.0008 25.6438" stroke="#021205" stroke-width="1.5" stroke-linecap="round" stroke-linejoin="round"/>
<circle cx="26.9581" cy="8.54795" r="7.79795" stroke="#021205" stroke-width="1.5" stroke-linejoin="round"/>
<path d="M30.4612 9.26968C30.4515 9.08557 30.2868 8.94507 30.0979 8.94507H29.0707L28.7897 8.23285H29.4244C29.6085 8.23285 29.7781 8.09719 29.7878 7.90824C29.7975 7.71444 29.6424 7.55455 29.4535 7.55455H28.5232L27.3604 4.62334C27.312 4.49737 27.186 4.41016 27.0455 4.41016C26.9098 4.41016 26.7839 4.49737 26.7306 4.62334L25.6162 7.54971H24.7054C24.5213 7.54971 24.3517 7.68537 24.342 7.87432C24.3323 8.06812 24.4874 8.22801 24.6763 8.22801H25.3401L25.0688 8.93538H24.0513C23.8672 8.93538 23.6976 9.07104 23.6879 9.25999C23.6782 9.45379 23.8333 9.61368 24.0222 9.61368H24.8023L23.8914 11.978C23.8236 12.1525 23.9108 12.3511 24.0852 12.4189C24.124 12.4383 24.1627 12.4383 24.2015 12.4383C24.3372 12.4383 24.4631 12.3608 24.5164 12.2251L25.5242 9.61852H28.5911L29.6376 12.2542C29.686 12.3899 29.812 12.4674 29.9525 12.4674C29.9913 12.4674 30.0397 12.4577 30.0785 12.448C30.2529 12.3802 30.3304 12.1864 30.2626 12.0071L29.313 9.62337H30.0833C30.311 9.61852 30.4709 9.46348 30.4612 9.26968ZM27.06 5.69408L27.7916 7.54971H26.3478L27.06 5.69408C27.06 5.69408 27.0504 5.69408 27.06 5.69408ZM25.8003 8.94507L26.0717 8.23285H28.0436L28.3246 8.94507H25.8003Z" fill="#021205"/>
</svg>
