<svg width="68" height="59" viewBox="0 0 68 59" fill="none" xmlns="http://www.w3.org/2000/svg">
<path d="M32.4994 50.9754C44.3603 50.9754 53.9754 41.3603 53.9754 29.4994C53.9754 17.6386 44.3603 8.02344 32.4994 8.02344C20.6386 8.02344 11.0234 17.6386 11.0234 29.4994C11.0234 41.3603 20.6386 50.9754 32.4994 50.9754Z" stroke="#0EBF3F" stroke-width="2.58109" stroke-miterlimit="10"/>
<path fill-rule="evenodd" clip-rule="evenodd" d="M51.1441 29.2635C51.1441 39.4299 42.9026 47.6715 32.7361 47.6715C22.5697 47.6715 14.3281 39.4299 14.3281 29.2635C14.3281 19.097 22.5697 10.8555 32.7361 10.8555C42.9026 10.8555 51.1441 19.097 51.1441 29.2635ZM29.5715 37.2693L24.114 31.7601C23.9614 31.615 23.8395 31.4407 23.7554 31.2476C23.6714 31.0546 23.627 30.8466 23.6248 30.636C23.6226 30.4255 23.6627 30.2166 23.7427 30.0218C23.8228 29.8271 23.9411 29.6503 24.0906 29.5021C24.2402 29.3539 24.418 29.2372 24.6135 29.159C24.809 29.0807 25.0182 29.0425 25.2287 29.0466C25.4393 29.0507 25.6468 29.097 25.8391 29.1828C26.0314 29.2686 26.2046 29.3921 26.3482 29.546L30.4616 33.6931L38.3557 22.0521C38.5899 21.7066 38.9519 21.4684 39.3618 21.3898C39.7717 21.3111 40.1961 21.3986 40.5416 21.6329C40.8871 21.8672 41.1253 22.2291 41.2039 22.639C41.2825 23.049 41.1951 23.4733 40.9608 23.8188L31.9923 37.0445C31.862 37.237 31.6906 37.3982 31.4905 37.5165C31.2903 37.6349 31.0665 37.7074 30.835 37.7289C30.6035 37.7504 30.3702 37.7203 30.1517 37.6408C29.9332 37.5614 29.7351 37.4345 29.5715 37.2693Z" fill="#0EBF3F"/>
<path d="M63.5929 13.7432L62.7651 19.27L58.5586 15.5912L53.0346 14.7573L56.7151 10.5553L57.5474 5.02678L61.751 8.71175L67.2733 9.54117L63.5929 13.7432Z" fill="#021205" stroke="#021205" stroke-width="1.2728" stroke-linecap="round" stroke-linejoin="round"/>
<path d="M3.37861 46.8978C4.63187 46.8978 5.64784 45.8819 5.64784 44.6286C5.64784 43.3753 4.63187 42.3594 3.37861 42.3594C2.12534 42.3594 1.10938 43.3753 1.10938 44.6286C1.10938 45.8819 2.12534 46.8978 3.37861 46.8978Z" fill="#021205" stroke="#021205" stroke-width="1.33333" stroke-linecap="round" stroke-linejoin="round"/>
</svg>
