<svg width="68" height="59" viewBox="0 0 68 59" fill="none" xmlns="http://www.w3.org/2000/svg">
<path d="M32.4994 50.9754C44.3603 50.9754 53.9754 41.3603 53.9754 29.4994C53.9754 17.6386 44.3603 8.02344 32.4994 8.02344C20.6386 8.02344 11.0234 17.6386 11.0234 29.4994C11.0234 41.3603 20.6386 50.9754 32.4994 50.9754Z" stroke="#FB2B50" stroke-width="2.58109" stroke-miterlimit="10"/>
<path d="M63.5929 13.7432L62.7651 19.27L58.5586 15.5912L53.0346 14.7573L56.7151 10.5553L57.5474 5.02678L61.751 8.71175L67.2733 9.54117L63.5929 13.7432Z" fill="#021205" stroke="#021205" stroke-width="1.2728" stroke-linecap="round" stroke-linejoin="round"/>
<path d="M3.37861 46.8978C4.63187 46.8978 5.64784 45.8819 5.64784 44.6286C5.64784 43.3753 4.63187 42.3594 3.37861 42.3594C2.12534 42.3594 1.10938 43.3753 1.10938 44.6286C1.10938 45.8819 2.12534 46.8978 3.37861 46.8978Z" fill="#021205" stroke="#021205" stroke-width="1.33333" stroke-linecap="round" stroke-linejoin="round"/>
<path fill-rule="evenodd" clip-rule="evenodd" d="M51 29.5C51 39.7173 42.7173 48 32.5 48C22.2827 48 14 39.7173 14 29.5C14 19.2827 22.2827 11 32.5 11C42.7173 11 51 19.2827 51 29.5ZM40.4246 22.5748C41.0104 23.1606 41.0104 24.1103 40.4246 24.6961L35.1213 29.9994L40.4246 35.3027C41.0104 35.8885 41.0104 36.8382 40.4246 37.424C39.8388 38.0098 38.8891 38.0098 38.3033 37.424L33 32.1207L27.6967 37.424C27.1109 38.0098 26.1612 38.0098 25.5754 37.424C24.9896 36.8382 24.9896 35.8885 25.5754 35.3027L30.8787 29.9994L25.5754 24.6961C24.9896 24.1103 24.9896 23.1606 25.5754 22.5748C26.1612 21.989 27.1109 21.989 27.6967 22.5748L33 27.8781L38.3033 22.5748C38.8891 21.989 39.8388 21.989 40.4246 22.5748Z" fill="#FB2B50"/>
</svg>
