<svg width="163" height="24" viewBox="0 0 163 24" fill="none" xmlns="http://www.w3.org/2000/svg">
<path d="M138.139 13.992C140.554 13.992 142.058 12.7449 142.058 10.5591C142.058 8.37318 140.554 7.21018 138.139 7.21018H134.468V17.2708H136.566V13.992H138.139ZM138.125 9.00372C139.298 9.00372 139.974 9.57822 139.974 10.5731C139.974 11.5679 139.298 12.1985 138.125 12.1985H136.566V9.00372H138.125Z" fill="#00FF66"/>
<path d="M149.36 17.2708H151.913L149.319 13.3895C150.63 12.9551 151.554 11.9322 151.554 10.475C151.554 8.37318 150.078 7.21018 147.608 7.21018H143.716V17.2708H145.814V13.7118H147.125L149.36 17.2708ZM147.497 8.9757C148.808 8.9757 149.47 9.53618 149.47 10.475C149.47 11.3998 148.808 11.9603 147.497 11.9603H145.814V8.9757H147.497Z" fill="#00FF66"/>
<path d="M163 12.2265C163 9.2139 160.778 7 157.908 7C155.051 7 152.843 9.2139 152.843 12.2265C152.843 15.2391 155.051 17.481 157.908 17.481C160.778 17.481 163 15.2391 163 12.2265ZM154.996 12.2265C154.996 10.3769 156.1 8.90564 157.908 8.90564C159.729 8.90564 160.833 10.3769 160.833 12.2265C160.833 14.0761 159.729 15.5754 157.908 15.5754C156.1 15.5754 154.996 14.0761 154.996 12.2265Z" fill="#00FF66"/>
<path fill-rule="evenodd" clip-rule="evenodd" d="M114.348 7.66843L116.515 8.80443V17.2708H114.348V7.66843ZM123.383 7C126.35 7 128.646 9.2139 128.646 12.2265C128.646 15.2391 126.35 17.481 123.383 17.481C120.431 17.481 118.149 15.2391 118.149 12.2265C118.149 9.2139 120.431 7 123.383 7ZM123.383 8.90564C121.515 8.90564 120.374 10.3769 120.374 12.2265C120.374 14.0761 121.515 15.5754 123.383 15.5754C125.266 15.5754 126.407 14.0761 126.407 12.2265C126.407 10.3769 125.266 8.90564 123.383 8.90564ZM33.8133 17.2708H31.6884L26.9965 10.2508V17.3173H25V7.21018H27.3388L31.8168 13.8799V7.21018H33.8133V17.2708ZM37.8114 13.4315V17.2708H35.6437V7.21018H42.2608V9.04576H37.8114V11.596H41.5763V13.4315H37.8114ZM48.4463 17.2708V9.12984H51.6835V7.21018H43.0556V9.12984H46.2928V17.2708H48.4463ZM54.6346 12.5488V14.2863H50.285V12.5488H54.6346ZM61.0517 17.2708H62.9626L65.658 10.531V17.2708H67.6403V7.21018H65.0448L62.0785 14.6646L59.0979 7.21018H56.5024V17.2708H58.3563V10.5871L61.0517 17.2708ZM79.4265 17.2708H77.102L76.3319 15.113H72.3531L71.5687 17.2708H69.3868L73.2372 7.21018H75.6046L79.4265 17.2708ZM74.3639 9.53619L72.9378 13.4175H75.7472L74.3639 9.53619ZM86.7761 17.2708H89.5428L85.3785 12.0303L89.4287 7.21018H86.9045L83.2251 11.624V7.21018H81.0574V17.2708H83.2251V12.6609L86.7761 17.2708ZM93.3652 15.4212H98.0856V17.2708H91.1975V7.21018H97.9858V9.05978H93.3652V11.1756H97.5722V13.0112H93.3652V15.4212ZM105.64 17.2708H108.278L105.597 13.3895C106.952 12.9551 107.907 11.9322 107.907 10.475C107.907 8.37318 106.381 7.21018 103.829 7.21018H99.807V17.2708H101.975V13.7118H103.329L105.64 17.2708ZM103.715 8.9757C105.069 8.9757 105.754 9.53619 105.754 10.475C105.754 11.3998 105.069 11.9603 103.715 11.9603H101.975V8.9757H103.715ZM111.286 14.7735C112.071 14.7735 112.613 15.32 112.613 16.1046C112.613 16.8753 112.071 17.4218 111.286 17.4218C110.502 17.4218 109.946 16.8753 109.946 16.1046C109.946 15.32 110.502 14.7735 111.286 14.7735Z" fill="black"/>
<path fill-rule="evenodd" clip-rule="evenodd" d="M3.7092e-06 10.2581L6.50673e-06 0L19.7094 3.44609e-06V12L19.7094 21.871V10.2581H16.5559V13.1613L11.0372 10.2581V13.1613L5.51862 10.2581V13.1613L3.7092e-06 10.2581ZM3.7092e-06 10.2581L1.61105e-06 12L0 24L19.7094 24L19.7094 21.871H16.5559H11.0372H5.51862H3.7092e-06V10.2581Z" fill="black"/>
</svg>
