<svg width="240" height="26" viewBox="0 0 240 26" fill="none" xmlns="http://www.w3.org/2000/svg">
<path d="M36.176 25.012V7.61198L48.704 25.012H53.1932V1.01198H49.052V18.4L36.4196 1.01198H32V25.012H36.176Z" fill="#021205"/>
<path d="M81.5761 6.74198H81.6805V25.012H85.8565V1.01198H79.6969L72.7021 20.2792L65.6029 1.01198H59.3737V25.012H63.5497V6.74198L70.3357 25.0468H74.8945L81.5761 6.74198Z" fill="#021205"/>
<path d="M92.049 1.01198V25.012H96.2598V17.7388L99.8442 13.876L106.909 25.012H111.92L102.767 10.5352L110.98 1.01198H105.656L99.4962 8.44718L96.2598 12.5188V1.01198H92.049Z" fill="#021205"/>
<path d="M133.794 8.23838C133.794 2.80958 130.28 0.999978 125.373 0.999978L115.107 1.01198V25.012H119.318V15.5464H124.746L129.41 25.012H134.038V24.7684L128.992 15.0244C131.741 14.224 133.794 12.0664 133.794 8.23838ZM119.318 4.54958H125.373C127.983 4.54958 129.514 5.83718 129.514 8.27318C129.514 10.7092 127.913 11.9968 125.373 11.9968H119.318V4.54958Z" fill="#021205"/>
<path d="M155.011 23.6068C151.215 23.6068 147.871 22.4226 147.558 18.1733H147.419L145.677 18.6609C145.956 23.6416 150.24 25.4179 154.977 25.4179C159.261 25.4179 164.102 23.7113 164.102 17.9295C164.102 9.08267 148.185 13.9937 148.185 7.06253C148.185 3.893 150.902 2.36048 154.628 2.36048C158.494 2.36048 161.594 3.57953 161.977 7.7243H162.117L163.858 7.27151C163.545 2.43014 159.505 0.549316 154.698 0.549316C149.717 0.549316 146.095 2.81327 146.095 7.09736C146.095 16.188 162.012 11.277 162.012 18.1385C162.012 22.5619 158.355 23.6068 155.011 23.6068Z" fill="#021205"/>
<path d="M165.181 6.88838V8.45573H168.943V21.3777C168.943 24.582 170.545 25.4179 172.878 25.4179C173.784 25.4179 175.56 25.209 176.466 24.8955L176.187 23.2585C175.212 23.6068 174.063 23.8506 173.296 23.8506C171.659 23.8506 170.789 23.2236 170.789 21.1338V8.45573H176.988V6.88838H170.789V2.39531H168.943V6.88838H165.181Z" fill="#021205"/>
<path d="M186.09 25.4179C190.409 25.4179 193.335 23.0147 193.335 18.8002V6.88838H191.489V18.7654C191.489 21.517 189.608 23.8158 186.09 23.8158C182.573 23.8158 180.692 21.517 180.692 18.7654V6.88838H178.846V18.8002C178.846 23.0147 181.806 25.4179 186.09 25.4179Z" fill="#021205"/>
<path d="M210.7 0.967275V10.5804C209.272 7.65464 206.521 6.47042 204.187 6.47042C199.485 6.47042 196.49 9.63995 196.49 15.979C196.49 22.2832 199.485 25.4179 204.187 25.4179C206.59 25.4179 209.377 24.373 210.77 21.1687V25H212.546V0.967275H210.7ZM204.466 23.8506C200.286 23.8506 198.44 20.6114 198.44 16.0138C198.44 11.4163 200.251 8.03777 204.466 8.03777C208.227 8.03777 210.77 10.7893 210.77 15.979C210.77 21.2035 208.227 23.8506 204.466 23.8506Z" fill="#021205"/>
<path d="M218.846 6.88838H217V25H218.846V6.88838ZM218.95 0.967275H216.895V3.5447H218.95V0.967275Z" fill="#021205"/>
<path d="M239.533 15.9442C239.533 9.84893 236.05 6.47042 230.86 6.47042C225.67 6.47042 222.187 9.84893 222.187 15.9442C222.187 22.0394 225.67 25.4179 230.86 25.4179C236.05 25.4179 239.533 22.0394 239.533 15.9442ZM224.138 15.9442C224.138 11.1725 226.646 8.0726 230.86 8.0726C235.074 8.0726 237.582 11.1725 237.582 15.9442C237.582 20.6811 235.074 23.8158 230.86 23.8158C226.646 23.8158 224.138 20.6811 224.138 15.9442Z" fill="#021205"/>
<path d="M0 11V0.999978H22V11H18V14L12 11V14L6 11V14L0 11Z" fill="#021205"/>
<path d="M0 21V25H22V21H0Z" fill="#021205"/>
</svg>
