<svg width="152" height="26" viewBox="0 0 152 26" fill="none" xmlns="http://www.w3.org/2000/svg">
<path d="M22.7491 20.0996V9.15785L30.6271 20.0996H33.4501V5.00755H30.8459V15.9417L22.9022 5.00755H20.123V20.0996H22.7491Z" fill="white"/>
<path d="M51.2982 8.61077H51.3639V20.0996H53.9899V5.00755H50.1165L45.7179 17.1234L41.2537 5.00755H37.3366V20.0996H39.9626V8.61077L44.2299 20.1215H47.0966L51.2982 8.61077Z" fill="white"/>
<path d="M57.8839 5.00755V20.0996H60.5318V15.5259L62.7858 13.0969L67.2282 20.0996H70.3794L64.624 10.9961L69.7885 5.00755H66.4404L62.567 9.68306L60.5318 12.2434V5.00755H57.8839Z" fill="white"/>
<path d="M84.1348 9.55176C84.1348 6.13794 81.9246 5 78.839 5L72.3834 5.00755V20.0996H75.0313V14.1473H78.4451L81.3775 20.0996H84.288V19.9464L81.1149 13.819C82.8437 13.3157 84.1348 11.9589 84.1348 9.55176ZM75.0313 7.23211H78.839C80.4803 7.23211 81.4432 8.0418 81.4432 9.57364C81.4432 11.1055 80.4365 11.9152 78.839 11.9152H75.0313V7.23211Z" fill="white"/>
<path d="M97.4764 18.7221C95.089 18.7221 92.9864 17.9774 92.7893 15.3053H92.7017L91.6066 15.6119C91.7818 18.744 94.4758 19.861 97.4545 19.861C100.148 19.861 103.193 18.7878 103.193 15.152C103.193 9.58879 93.1835 12.677 93.1835 8.31846C93.1835 6.32535 94.8919 5.36165 97.2354 5.36165C99.6666 5.36165 101.616 6.12823 101.857 8.7346H101.944L103.04 8.44987C102.842 5.40545 100.302 4.22273 97.2793 4.22273C94.1472 4.22273 91.8694 5.64638 91.8694 8.34036C91.8694 14.0569 101.879 10.9686 101.879 15.2834C101.879 18.065 99.579 18.7221 97.4764 18.7221ZM103.871 8.20895V9.19455H106.237V17.3203C106.237 19.3353 107.244 19.861 108.712 19.861C109.281 19.861 110.398 19.7296 110.968 19.5324L110.792 18.503C110.179 18.7221 109.456 18.8754 108.975 18.8754C107.945 18.8754 107.398 18.4811 107.398 17.167V9.19455H111.296V8.20895H107.398V5.38355H106.237V8.20895H103.871ZM117.02 19.861C119.736 19.861 121.576 18.3497 121.576 15.6995V8.20895H120.415V15.6776C120.415 17.4079 119.232 18.8535 117.02 18.8535C114.808 18.8535 113.625 17.4079 113.625 15.6776V8.20895H112.464V15.6995C112.464 18.3497 114.326 19.861 117.02 19.861ZM132.495 4.48556V10.5306C131.597 8.6908 129.867 7.94612 128.4 7.94612C125.443 7.94612 123.559 9.93923 123.559 13.9254C123.559 17.8898 125.443 19.861 128.4 19.861C129.911 19.861 131.663 19.2039 132.539 17.1889V19.5981H133.656V4.48556H132.495ZM128.575 18.8754C125.947 18.8754 124.786 16.8385 124.786 13.9474C124.786 11.0562 125.925 8.93172 128.575 8.93172C130.94 8.93172 132.539 10.662 132.539 13.9254C132.539 17.2108 130.94 18.8754 128.575 18.8754ZM137.618 8.20895H136.457V19.5981H137.618V8.20895ZM137.683 4.48556H136.391V6.10633H137.683V4.48556ZM150.626 13.9035C150.626 10.0706 148.436 7.94612 145.173 7.94612C141.909 7.94612 139.719 10.0706 139.719 13.9035C139.719 17.7364 141.909 19.861 145.173 19.861C148.436 19.861 150.626 17.7364 150.626 13.9035ZM140.945 13.9035C140.945 10.9029 142.522 8.95363 145.173 8.95363C147.823 8.95363 149.4 10.9029 149.4 13.9035C149.4 16.8823 147.823 18.8535 145.173 18.8535C142.522 18.8535 140.945 16.8823 140.945 13.9035Z" fill="white"/>
<path d="M0 11.2883L0 5H13.8344V11.2883H11.319V13.1748L7.54601 11.2883V13.1748L3.77301 11.2883V13.1748L0 11.2883Z" fill="white"/>
<path d="M0 17.5767V20.092H13.8344V17.5767H0Z" fill="white"/>
</svg>
