<svg width="156" height="128" viewBox="0 0 156 128" fill="none" xmlns="http://www.w3.org/2000/svg">
<path d="M78.4403 46.8846C78.2963 46.2457 77.3858 46.2457 77.2419 46.8846L74.3129 59.8872C74.2608 60.1186 74.0801 60.2993 73.8487 60.3514L60.8461 63.2804C60.2071 63.4244 60.2071 64.3349 60.8461 64.4788L73.8487 67.4078C74.0801 67.4599 74.2608 67.6406 74.3129 67.872L77.2419 80.8746C77.3858 81.5136 78.2963 81.5136 78.4403 80.8746L81.3693 67.872C81.4214 67.6406 81.6021 67.4599 81.8335 67.4078L94.8361 64.4788C95.475 64.3349 95.475 63.4244 94.8361 63.2804L81.8335 60.3514C81.6021 60.2993 81.4214 60.1186 81.3693 59.8872L78.4403 46.8846Z" fill="url(#paint0_linear_1927_39821)"/>
<path d="M4.79838 85.2823C5.01385 86.0865 5.63524 86.8411 6.78359 87.5117C7.93463 88.1839 9.55315 88.7327 11.6238 89.1367C15.7617 89.9441 21.5386 90.1427 28.5639 89.7348C42.6022 88.9196 61.4678 85.6927 81.8237 80.2384C102.18 74.784 120.131 68.1458 132.696 61.8326C138.984 58.6732 143.888 55.6128 147.068 52.8446C148.659 51.4594 149.786 50.1749 150.447 49.0172C151.106 47.8623 151.267 46.898 151.052 46.0939C150.836 45.2898 150.215 44.5351 149.066 43.8645C147.915 43.1923 146.297 42.6435 144.226 42.2395C140.088 41.4321 134.311 41.2335 127.286 41.6414C113.248 42.4566 94.3821 45.6835 74.0262 51.1378C53.6703 56.5922 35.7188 63.2304 23.1537 69.5436C16.8656 72.703 11.962 75.7634 8.78216 78.5316C7.19095 79.9168 6.06365 81.2013 5.40291 82.359C4.74371 83.5139 4.58291 84.4782 4.79838 85.2823Z" stroke="url(#paint1_linear_1927_39821)" stroke-width="1.46821"/>
<path d="M23.9592 117.621C24.4323 118.094 25.2287 118.367 26.4846 118.294C27.7366 118.221 29.3365 117.807 31.2613 117.041C35.1052 115.511 40.0791 112.645 45.8519 108.651C57.3874 100.67 71.9921 88.2701 86.921 73.3412C101.85 58.4122 114.25 43.8075 122.231 32.272C126.225 26.4992 129.091 21.5253 130.621 17.6814C131.387 15.7566 131.801 14.1567 131.874 12.9047C131.947 11.6489 131.674 10.8524 131.201 10.3793C130.727 9.90626 129.931 9.63279 128.675 9.70586C127.423 9.77871 125.823 10.1927 123.898 10.9588C120.055 12.4888 115.081 15.3549 109.308 19.3489C97.7723 27.3299 83.1676 39.7299 68.2387 54.6588C53.3098 69.5878 40.9098 84.1924 32.9287 95.728C28.9347 101.501 26.0687 106.475 24.5387 110.319C23.7726 112.243 23.3586 113.843 23.2857 115.095C23.2127 116.351 23.4861 117.148 23.9592 117.621Z" stroke="url(#paint2_linear_1927_39821)" stroke-width="1.46821"/>
<defs>
<linearGradient id="paint0_linear_1927_39821" x1="75.4876" y1="62.8492" x2="105.481" y2="58.0445" gradientUnits="userSpaceOnUse">
<stop stop-color="#021205"/>
<stop offset="1" stop-color="#0D3F16"/>
</linearGradient>
<linearGradient id="paint1_linear_1927_39821" x1="68.8696" y1="67.257" x2="104.893" y2="89.4799" gradientUnits="userSpaceOnUse">
<stop stop-color="#021205"/>
<stop offset="1" stop-color="#0D3F16"/>
</linearGradient>
<linearGradient id="paint2_linear_1927_39821" x1="70.5804" y1="69.9657" x2="109.91" y2="73.5885" gradientUnits="userSpaceOnUse">
<stop stop-color="#021205"/>
<stop offset="1" stop-color="#0D3F16"/>
</linearGradient>
</defs>
</svg>
