<svg width="237" height="18" viewBox="0 0 237 18" fill="none" xmlns="http://www.w3.org/2000/svg">
<path d="M194.304 12.008C198.451 12.008 201.035 9.86631 201.035 6.1123C201.035 2.35829 198.451 0.360962 194.304 0.360962H188V17.639H191.602V12.008H194.304ZM194.28 3.44118C196.295 3.44118 197.456 4.42781 197.456 6.13636C197.456 7.84492 196.295 8.92781 194.28 8.92781H191.602V3.44118H194.28Z" fill="#00FF66"/>
<path d="M213.575 17.639H217.959L213.504 10.9733C215.755 10.2273 217.343 8.47059 217.343 5.96791C217.343 2.35829 214.807 0.360962 210.565 0.360962H203.882V17.639H207.484V11.5267H209.736L213.575 17.639ZM210.376 3.39305C212.627 3.39305 213.765 4.35561 213.765 5.96791C213.765 7.55615 212.627 8.51872 210.376 8.51872H207.484V3.39305H210.376Z" fill="#00FF66"/>
<path d="M237 8.97594C237 3.80214 233.184 0 228.255 0C223.349 0 219.557 3.80214 219.557 8.97594C219.557 14.1497 223.349 18 228.255 18C233.184 18 237 14.1497 237 8.97594ZM223.255 8.97594C223.255 5.79947 225.15 3.27273 228.255 3.27273C231.383 3.27273 233.279 5.79947 233.279 8.97594C233.279 12.1524 231.383 14.7273 228.255 14.7273C225.15 14.7273 223.255 12.1524 223.255 8.97594Z" fill="#00FF66"/>
<path fill-rule="evenodd" clip-rule="evenodd" d="M153.445 1.14796L157.167 3.09891V17.639H153.445V1.14796ZM168.963 0C174.057 0 178 3.80214 178 8.97594C178 14.1497 174.057 18 168.963 18C163.893 18 159.974 14.1497 159.974 8.97594C159.974 3.80214 163.893 0 168.963 0ZM168.963 3.27273C165.754 3.27273 163.795 5.79947 163.795 8.97594C163.795 12.1524 165.754 14.7273 168.963 14.7273C172.195 14.7273 174.155 12.1524 174.155 8.97594C174.155 5.79947 172.195 3.27273 168.963 3.27273ZM15.1359 17.639H11.4866L3.42885 5.5829V17.7188H0V0.36097H4.01665L11.7071 11.8155V0.36097H15.1359V17.639ZM22.0022 11.0455V17.639H18.2794V0.36097H29.6436V3.51338H22.0022V7.89306H28.468V11.0455H22.0022ZM40.2664 17.639V3.65776H45.826V0.36097H31.0085V3.65776H36.5681V17.639H40.2664ZM50.8942 9.52942V12.5134H43.4242V9.52942H50.8942ZM61.9148 17.639H65.1967L69.8257 6.06418V17.639H73.23V0.36097H68.7725L63.6782 13.1631L58.5594 0.36097H54.1019V17.639H57.2859V6.16044L61.9148 17.639ZM93.4717 17.639H89.4795L88.1569 13.9332H81.3238L79.9767 17.639H76.2295L82.8422 0.36097H86.9079L93.4717 17.639ZM84.7771 4.35562L82.3279 11.0214H87.1528L84.7771 4.35562ZM106.094 17.639H110.845L103.694 8.63904L110.649 0.36097H106.314L99.9953 7.94118V0.36097H96.2726V17.639H99.9953V9.72193L106.094 17.639ZM117.41 14.4626H125.517V17.639H113.687V0.36097H125.345V3.53744H117.41V7.17113H124.635V10.3235H117.41V14.4626ZM138.49 17.639H143.021L138.417 10.9733C140.743 10.2273 142.384 8.4706 142.384 5.96792C142.384 2.3583 139.764 0.36097 135.38 0.36097H128.473V17.639H132.196V11.5267H134.522L138.49 17.639ZM135.184 3.39306C137.51 3.39306 138.686 4.35562 138.686 5.96792C138.686 7.55616 137.51 8.51872 135.184 8.51872H132.196V3.39306H135.184ZM148.187 13.3501C149.535 13.3501 150.465 14.2886 150.465 15.6362C150.465 16.9598 149.535 17.8983 148.187 17.8983C146.84 17.8983 145.885 16.9598 145.885 15.6362C145.885 14.2886 146.84 13.3501 148.187 13.3501Z" fill="white"/>
</svg>
