<svg width="241" height="40" viewBox="0 0 241 40" fill="none" xmlns="http://www.w3.org/2000/svg">
<path d="M36.176 31.012V13.612L48.704 31.012H53.1932V7.012H49.052V24.4L36.4196 7.012H32V31.012H36.176Z" fill="#021205"/>
<path d="M81.5761 12.742H81.6805V31.012H85.8565V7.012H79.6969L72.7021 26.2792L65.6029 7.012H59.3737V31.012H63.5497V12.742L70.3357 31.0468H74.8945L81.5761 12.742Z" fill="#021205"/>
<path d="M92.049 7.012V31.012H96.2598V23.7388L99.8442 19.876L106.909 31.012H111.92L102.767 16.5352L110.98 7.012H105.656L99.4962 14.4472L96.2598 18.5188V7.012H92.049Z" fill="#021205"/>
<path d="M133.794 14.2384C133.794 8.8096 130.28 7 125.373 7L115.107 7.012V31.012H119.318V21.5464H124.746L129.41 31.012H134.038V30.7684L128.992 21.0244C131.741 20.224 133.794 18.0664 133.794 14.2384ZM119.318 10.5496H125.373C127.983 10.5496 129.514 11.8372 129.514 14.2732C129.514 16.7092 127.913 17.9968 125.373 17.9968H119.318V10.5496Z" fill="#021205"/>
<path d="M155.011 29.6068C151.215 29.6068 147.871 28.4226 147.558 24.1733H147.419L145.677 24.6609C145.956 29.6416 150.24 31.418 154.977 31.418C159.261 31.418 164.102 29.7113 164.102 23.9295C164.102 15.0827 148.185 19.9937 148.185 13.0625C148.185 9.89302 150.902 8.3605 154.628 8.3605C158.494 8.3605 161.594 9.57955 161.977 13.7243H162.117L163.858 13.2715C163.545 8.43016 159.505 6.54934 154.698 6.54934C149.717 6.54934 146.095 8.81329 146.095 13.0974C146.095 22.188 162.012 17.277 162.012 24.1385C162.012 28.5619 158.355 29.6068 155.011 29.6068ZM165.181 12.8884V14.4557H168.943V27.3777C168.943 30.582 170.545 31.418 172.878 31.418C173.784 31.418 175.56 31.209 176.466 30.8955L176.187 29.2585C175.212 29.6068 174.063 29.8506 173.296 29.8506C171.659 29.8506 170.789 29.2237 170.789 27.1339V14.4557H176.988V12.8884H170.789V8.39533H168.943V12.8884H165.181ZM186.09 31.418C190.409 31.418 193.335 29.0147 193.335 24.8003V12.8884H191.489V24.7654C191.489 27.517 189.608 29.8158 186.09 29.8158C182.573 29.8158 180.692 27.517 180.692 24.7654V12.8884H178.846V24.8003C178.846 29.0147 181.806 31.418 186.09 31.418ZM210.7 6.9673V16.5804C209.272 13.6547 206.521 12.4704 204.187 12.4704C199.485 12.4704 196.49 15.64 196.49 21.979C196.49 28.2833 199.485 31.418 204.187 31.418C206.59 31.418 209.377 30.3731 210.77 27.1687V31H212.546V6.9673H210.7ZM204.466 29.8506C200.286 29.8506 198.44 26.6114 198.44 22.0139C198.44 17.4163 200.251 14.0378 204.466 14.0378C208.227 14.0378 210.77 16.7894 210.77 21.979C210.77 27.2035 208.227 29.8506 204.466 29.8506ZM218.846 12.8884H217V31H218.846V12.8884ZM218.95 6.9673H216.895V9.54472H218.95V6.9673ZM239.533 21.9442C239.533 15.8489 236.05 12.4704 230.86 12.4704C225.67 12.4704 222.187 15.8489 222.187 21.9442C222.187 28.0394 225.67 31.418 230.86 31.418C236.05 31.418 239.533 28.0394 239.533 21.9442ZM224.138 21.9442C224.138 17.1725 226.646 14.0726 230.86 14.0726C235.075 14.0726 237.582 17.1725 237.582 21.9442C237.582 26.6811 235.075 29.8158 230.86 29.8158C226.646 29.8158 224.138 26.6811 224.138 21.9442Z" fill="#021205"/>
<path d="M0 17L0 7H22V17H18V20L12 17V20L6 17V20L0 17Z" fill="#021205"/>
<path d="M0 27V31H22V27H0Z" fill="#021205"/>
</svg>
