<?xml version="1.0" standalone="no"?>
<!DOCTYPE svg PUBLIC "-//W3C//DTD SVG 20010904//EN"
 "http://www.w3.org/TR/2001/REC-SVG-20010904/DTD/svg10.dtd">
<svg version="1.0" xmlns="http://www.w3.org/2000/svg"
 width="700.000000pt" height="700.000000pt" viewBox="0 0 700.000000 700.000000"
 preserveAspectRatio="xMidYMid meet">
<metadata>
Created by potrace 1.14, written by Peter Selinger 2001-2017
</metadata>
<g transform="translate(0.000000,700.000000) scale(0.100000,-0.100000)"
fill="#000000" stroke="none">
<path d="M1762 4739 l3 -931 475 -255 c261 -140 480 -255 485 -256 6 -1 12 91
15 254 l5 255 480 -257 480 -257 5 259 5 259 485 -260 485 -259 3 259 2 260
280 0 280 0 -2 928 -3 927 -1743 3 -1742 2 2 -931z"/>
<path d="M1760 1525 l0 -195 1743 2 1742 3 3 193 2 192 -1745 0 -1745 0 0
-195z"/>
</g>
</svg>
