<?xml version="1.0" encoding="UTF-8" standalone="no"?>
<!DOCTYPE svg PUBLIC "-//W3C//DTD SVG 1.1//EN" "http://www.w3.org/Graphics/SVG/1.1/DTD/svg11.dtd">
<svg width="100%" height="100%" viewBox="0 0 190 214" version="1.1" xmlns="http://www.w3.org/2000/svg" xmlns:xlink="http://www.w3.org/1999/xlink" xml:space="preserve" xmlns:serif="http://www.serif.com/" style="fill-rule:evenodd;clip-rule:evenodd;stroke-linejoin:round;stroke-miterlimit:2;">
    <g transform="matrix(1,0,0,1,-3036.27,-320.169)">
        <g transform="matrix(1,0,0,1,3190.78,342.605)">
            <path d="M0,168.453C0,173.6 -4.188,177.788 -9.335,177.788L-132.067,177.788C-137.215,177.788 -141.402,173.6 -141.402,168.453L-141.402,32.512L-116.717,32.512C-103.849,32.512 -93.321,21.983 -93.321,9.115L-93.321,-9.334L-9.335,-9.334C-4.188,-9.334 0,-5.146 0,0.001L0,72.997L13.102,72.997L13.102,0.001C13.102,-12.371 3.037,-22.436 -9.335,-22.436L-102.845,-22.436L-154.504,22.665L-154.504,168.453C-154.504,180.825 -144.439,190.889 -132.067,190.889L-9.335,190.889C3.037,190.889 13.102,180.825 13.102,168.453L13.102,150.311L0,150.311L0,168.453Z" style="fill:rgb(83,54,173);fill-rule:nonzero;"/>
        </g>
        <g transform="matrix(1,0,0,1,3215.72,487.087)">
            <path d="M0,-60.255L-125.754,-60.255C-131.416,-60.255 -136.048,-55.622 -136.048,-49.961L-136.048,-10.294C-136.048,-4.632 -131.416,0 -125.754,0L0,0C5.662,0 10.294,-4.632 10.294,-10.294L10.294,-49.961C10.294,-55.622 5.662,-60.255 0,-60.255" style="fill:rgb(83,54,173);fill-rule:nonzero;"/>
        </g>
        <g transform="matrix(1,0,0,1,0,59.728)">
            <path d="M3117.41,399.633L3132.31,399.633L3132.31,405.072L3117.41,405.072L3117.41,399.633ZM3120.73,381.488L3129.1,381.488L3138.83,412.447L3131.42,412.447L3127.37,396.768C3126.51,393.673 3125.68,390.012 3124.85,386.782L3124.66,386.782C3123.91,390.051 3123.09,393.673 3122.23,396.768L3118.16,412.447L3111.01,412.447L3120.73,381.488Z" style="fill:white;fill-rule:nonzero;"/>
        </g>
        <g transform="matrix(1,0,0,1,3141.81,472.176)">
            <path d="M0,-30.959L19.398,-30.959L19.398,-25.089L6.999,-25.089L6.999,-18.872L17.555,-18.872L17.555,-13.003L6.999,-13.003L6.999,-5.87L19.873,-5.87L19.873,0L0,0L0,-30.959Z" style="fill:white;fill-rule:nonzero;"/>
        </g>
        <g transform="matrix(1,0,0,1,3178.25,457.279)">
            <path d="M0,-1.165C3.85,-1.165 5.671,-2.88 5.671,-6.103C5.671,-9.344 3.598,-10.506 -0.189,-10.506L-3.413,-10.506L-3.413,-1.165L0,-1.165ZM-10.412,-16.062L0.224,-16.062C7.036,-16.062 12.53,-13.626 12.53,-6.103C12.53,1.173 6.975,4.393 0.414,4.393L-3.413,4.393L-3.413,14.897L-10.412,14.897L-10.412,-16.062Z" style="fill:white;fill-rule:nonzero;"/>
        </g>
    </g>
</svg>
