<?xml version="1.0" encoding="UTF-8" standalone="no"?>
<!DOCTYPE svg PUBLIC "-//W3C//DTD SVG 1.1//EN" "http://www.w3.org/Graphics/SVG/1.1/DTD/svg11.dtd">
<svg width="100%" height="100%" viewBox="0 0 190 214" version="1.1" xmlns="http://www.w3.org/2000/svg" xmlns:xlink="http://www.w3.org/1999/xlink" xml:space="preserve" xmlns:serif="http://www.serif.com/" style="fill-rule:evenodd;clip-rule:evenodd;stroke-linejoin:round;stroke-miterlimit:2;">
    <g transform="matrix(1,0,0,1,-2316.56,-320.169)">
        <g transform="matrix(1,0,0,1,2471.06,342.605)">
            <path d="M0,168.453C0,173.6 -4.187,177.788 -9.334,177.788L-132.067,177.788C-137.214,177.788 -141.402,173.6 -141.402,168.453L-141.402,32.512L-116.717,32.512C-103.849,32.512 -93.321,21.983 -93.321,9.115L-93.321,-9.334L-9.334,-9.334C-4.187,-9.334 0,-5.146 0,0.001L0,72.997L13.102,72.997L13.102,0.001C13.102,-12.371 3.037,-22.436 -9.334,-22.436L-102.845,-22.436L-154.504,22.665L-154.504,168.453C-154.504,180.825 -144.439,190.889 -132.067,190.889L-9.334,190.889C3.037,190.889 13.102,180.825 13.102,168.453L13.102,150.311L0,150.311L0,168.453Z" style="fill:rgb(242,171,28);fill-rule:nonzero;"/>
        </g>
        <g transform="matrix(1,0,0,1,2496.01,487.087)">
            <path d="M0,-60.255L-125.754,-60.255C-131.416,-60.255 -136.048,-55.622 -136.048,-49.961L-136.048,-10.294C-136.048,-4.632 -131.416,0 -125.754,0L0,0C5.662,0 10.294,-4.632 10.294,-10.294L10.294,-49.961C10.294,-55.622 5.662,-60.255 0,-60.255" style="fill:rgb(242,171,28);fill-rule:nonzero;"/>
        </g>
        <g transform="matrix(1,0,0,1,0,59.728)">
            <path d="M2417.72,399.633L2432.62,399.633L2432.62,405.072L2417.72,405.072L2417.72,399.633ZM2421.03,381.488L2429.41,381.488L2439.13,412.447L2431.72,412.447L2427.67,396.768C2426.81,393.673 2425.99,390.012 2425.16,386.782L2424.97,386.782C2424.22,390.051 2423.39,393.673 2422.53,396.768L2418.47,412.447L2411.31,412.447L2421.03,381.488Z" style="fill:white;fill-rule:nonzero;"/>
        </g>
        <g transform="matrix(1,0,0,1,0,59.728)">
            <rect x="2442.11" y="381.488" width="6.999" height="30.959" style="fill:white;"/>
        </g>
    </g>
</svg>
