<?xml version="1.0" encoding="UTF-8" standalone="no"?>
<!DOCTYPE svg PUBLIC "-//W3C//DTD SVG 1.1//EN" "http://www.w3.org/Graphics/SVG/1.1/DTD/svg11.dtd">
<svg width="100%" height="100%" viewBox="0 0 190 214" version="1.1" xmlns="http://www.w3.org/2000/svg" xmlns:xlink="http://www.w3.org/1999/xlink" xml:space="preserve" xmlns:serif="http://www.serif.com/" style="fill-rule:evenodd;clip-rule:evenodd;stroke-linejoin:round;stroke-miterlimit:2;">
    <g transform="matrix(1,0,0,1,-2081.55,-65.1538)">
        <g transform="matrix(1,0,0,1,2236.05,87.5908)">
            <path d="M0,168.452C0,173.599 -4.188,177.787 -9.335,177.787L-132.068,177.787C-137.215,177.787 -141.402,173.599 -141.402,168.452L-141.402,32.511L-116.717,32.511C-103.849,32.511 -93.321,21.982 -93.321,9.114L-93.321,-9.335L-9.335,-9.335C-4.188,-9.335 0,-5.147 0,0L0,72.996L13.102,72.996L13.102,0C13.102,-12.372 3.037,-22.437 -9.335,-22.437L-102.845,-22.437L-154.504,22.664L-154.504,168.452C-154.504,180.824 -144.439,190.889 -132.068,190.889L-9.335,190.889C3.037,190.889 13.102,180.824 13.102,168.452L13.102,150.31L0,150.31L0,168.452Z" style="fill:rgb(158,197,85);fill-rule:nonzero;"/>
        </g>
        <g transform="matrix(1,0,0,1,2261,232.072)">
            <path d="M0,-60.255L-125.754,-60.255C-131.416,-60.255 -136.048,-55.622 -136.048,-49.961L-136.048,-10.294C-136.048,-4.632 -131.416,0 -125.754,0L0,0C5.662,0 10.294,-4.632 10.294,-10.294L10.294,-49.961C10.294,-55.622 5.662,-60.255 0,-60.255" style="fill:rgb(158,197,85);fill-rule:nonzero;"/>
        </g>
        <g transform="matrix(1,0,0,1,2160.23,201.503)">
            <path d="M0,0.357C0,-9.914 6.79,-15.871 14.614,-15.871C18.615,-15.871 21.84,-13.988 23.925,-11.853L20.235,-7.364C18.682,-8.811 17.011,-9.828 14.771,-9.828C10.525,-9.828 7.173,-6.085 7.173,0.123C7.173,6.486 10.134,10.185 14.659,10.185C17.201,10.185 19.201,8.933 20.716,7.29L24.405,11.685C21.835,14.674 18.414,16.228 14.407,16.228C6.556,16.228 0,10.785 0,0.357" style="fill:white;fill-rule:nonzero;"/>
        </g>
        <g transform="matrix(1,0,0,1,2186.01,190.107)">
            <path d="M0,23.147L4.019,18.345C6.221,20.261 9.076,21.58 11.624,21.58C14.546,21.58 15.976,20.43 15.976,18.592C15.976,16.643 14.215,16.018 11.511,14.905L7.487,13.19C4.279,11.885 1.24,9.25 1.24,4.751C1.24,-0.379 5.822,-4.476 12.267,-4.476C15.832,-4.476 19.56,-3.07 22.226,-0.418L18.692,3.992C16.653,2.428 14.714,1.567 12.267,1.567C9.854,1.567 8.317,2.573 8.317,4.343C8.317,6.242 10.343,6.932 13.045,8.008L16.989,9.606C20.771,11.134 23.131,13.652 23.131,18.027C23.131,23.169 18.845,27.623 11.467,27.623C7.438,27.623 3.157,26.098 0,23.147" style="fill:white;fill-rule:nonzero;"/>
        </g>
        <g transform="matrix(1,0,0,1,2211.56,190.107)">
            <path d="M0,23.147L4.019,18.345C6.221,20.261 9.076,21.58 11.624,21.58C14.545,21.58 15.976,20.43 15.976,18.592C15.976,16.643 14.215,16.018 11.511,14.905L7.487,13.19C4.279,11.885 1.24,9.25 1.24,4.751C1.24,-0.379 5.822,-4.476 12.267,-4.476C15.832,-4.476 19.56,-3.07 22.226,-0.418L18.692,3.992C16.652,2.428 14.714,1.567 12.267,1.567C9.854,1.567 8.317,2.573 8.317,4.343C8.317,6.242 10.343,6.932 13.045,8.008L16.989,9.606C20.771,11.134 23.131,13.652 23.131,18.027C23.131,23.169 18.845,27.623 11.467,27.623C7.438,27.623 3.157,26.098 0,23.147" style="fill:white;fill-rule:nonzero;"/>
        </g>
    </g>
</svg>
