<?xml version="1.0" encoding="UTF-8" standalone="no"?>
<!DOCTYPE svg PUBLIC "-//W3C//DTD SVG 1.1//EN" "http://www.w3.org/Graphics/SVG/1.1/DTD/svg11.dtd">
<svg width="100%" height="100%" viewBox="0 0 190 214" version="1.1" xmlns="http://www.w3.org/2000/svg" xmlns:xlink="http://www.w3.org/1999/xlink" xml:space="preserve" xmlns:serif="http://www.serif.com/" style="fill-rule:evenodd;clip-rule:evenodd;stroke-linejoin:round;stroke-miterlimit:2;">
    <g transform="matrix(1,0,0,1,-1831.89,-320.169)">
        <g transform="matrix(1,0,0,1,1986.39,342.605)">
            <path d="M0,168.453C0,173.6 -4.187,177.788 -9.335,177.788L-132.067,177.788C-137.214,177.788 -141.402,173.6 -141.402,168.453L-141.402,32.512L-116.717,32.512C-103.849,32.512 -93.321,21.983 -93.321,9.115L-93.321,-9.334L-9.335,-9.334C-4.187,-9.334 0,-5.146 0,0.001L0,72.997L13.102,72.997L13.102,0.001C13.102,-12.371 3.037,-22.436 -9.335,-22.436L-102.845,-22.436L-154.504,22.665L-154.504,168.453C-154.504,180.825 -144.439,190.889 -132.067,190.889L-9.335,190.889C3.037,190.889 13.102,180.825 13.102,168.453L13.102,150.311L0,150.311L0,168.453Z" style="fill:rgb(0,176,86);fill-rule:nonzero;"/>
        </g>
        <g transform="matrix(1,0,0,1,2011.34,487.087)">
            <path d="M0,-60.255L-125.754,-60.255C-131.416,-60.255 -136.048,-55.622 -136.048,-49.961L-136.048,-10.294C-136.048,-4.632 -131.416,0 -125.754,0L0,0C5.662,0 10.294,-4.632 10.294,-10.294L10.294,-49.961C10.294,-55.622 5.662,-60.255 0,-60.255" style="fill:rgb(0,176,86);fill-rule:nonzero;"/>
        </g>
        <g transform="matrix(1,0,0,1,1910.33,456.517)">
            <path d="M0,0.358C0,-9.913 6.791,-15.871 14.614,-15.871C18.616,-15.871 21.84,-13.987 23.925,-11.852L20.235,-7.363C18.682,-8.81 17.011,-9.827 14.771,-9.827C10.525,-9.827 7.172,-6.083 7.172,0.124C7.172,6.487 10.134,10.185 14.659,10.185C17.201,10.185 19.202,8.934 20.715,7.292L24.405,11.685C21.834,14.675 18.414,16.229 14.407,16.229C6.556,16.229 0,10.787 0,0.358" style="fill:white;fill-rule:nonzero;"/>
        </g>
        <g transform="matrix(1,0,0,1,1936.11,445.123)">
            <path d="M0,23.146L4.02,18.344C6.221,20.26 9.077,21.579 11.625,21.579C14.546,21.579 15.976,20.428 15.976,18.591C15.976,16.642 14.216,16.016 11.511,14.905L7.488,13.189C4.28,11.884 1.24,9.249 1.24,4.75C1.24,-0.38 5.823,-4.477 12.267,-4.477C15.833,-4.477 19.56,-3.072 22.226,-0.419L18.693,3.992C16.653,2.427 14.714,1.567 12.267,1.567C9.854,1.567 8.318,2.572 8.318,4.342C8.318,6.242 10.343,6.931 13.045,8.006L16.99,9.605C20.771,11.133 23.131,13.651 23.131,18.027C23.131,23.167 18.845,27.623 11.468,27.623C7.439,27.623 3.158,26.097 0,23.146" style="fill:white;fill-rule:nonzero;"/>
        </g>
        <g transform="matrix(1,0,0,1,1960.52,472.176)">
            <path d="M0,-30.959L7.408,-30.959L11.139,-16.532C12.061,-13.146 12.682,-10.022 13.62,-6.605L13.81,-6.605C14.749,-10.022 15.408,-13.146 16.291,-16.532L19.944,-30.959L27.1,-30.959L17.763,0L9.354,0L0,-30.959Z" style="fill:white;fill-rule:nonzero;"/>
        </g>
    </g>
</svg>
