<?xml version="1.0" encoding="UTF-8" standalone="no"?>
<!DOCTYPE svg PUBLIC "-//W3C//DTD SVG 1.1//EN" "http://www.w3.org/Graphics/SVG/1.1/DTD/svg11.dtd">
<svg width="100%" height="100%" viewBox="0 0 190 214" version="1.1" xmlns="http://www.w3.org/2000/svg" xmlns:xlink="http://www.w3.org/1999/xlink" xml:space="preserve" xmlns:serif="http://www.serif.com/" style="fill-rule:evenodd;clip-rule:evenodd;stroke-linejoin:round;stroke-miterlimit:2;">
    <g transform="matrix(1,0,0,1,-1594.53,-65.1538)">
        <g transform="matrix(1,0,0,1,1749.03,87.5908)">
            <path d="M0,168.452C0,173.599 -4.187,177.787 -9.335,177.787L-132.067,177.787C-137.214,177.787 -141.402,173.599 -141.402,168.452L-141.402,32.511L-116.717,32.511C-103.849,32.511 -93.321,21.982 -93.321,9.114L-93.321,-9.335L-9.335,-9.335C-4.187,-9.335 0,-5.147 0,0L0,72.996L13.102,72.996L13.102,0C13.102,-12.372 3.037,-22.437 -9.335,-22.437L-102.845,-22.437L-154.504,22.664L-154.504,168.452C-154.504,180.824 -144.439,190.889 -132.067,190.889L-9.335,190.889C3.037,190.889 13.102,180.824 13.102,168.452L13.102,150.31L0,150.31L0,168.452Z" style="fill:rgb(24,148,232);fill-rule:nonzero;"/>
        </g>
        <g transform="matrix(1,0,0,1,1773.98,232.072)">
            <path d="M0,-60.255L-125.754,-60.255C-131.416,-60.255 -136.048,-55.622 -136.048,-49.961L-136.048,-10.294C-136.048,-4.632 -131.416,0 -125.754,0L0,0C5.662,0 10.294,-4.632 10.294,-10.294L10.294,-49.961C10.294,-55.622 5.662,-60.255 0,-60.255" style="fill:rgb(24,148,232);fill-rule:nonzero;"/>
        </g>
        <g transform="matrix(1,0,0,1,1676.99,191.836)">
            <path d="M0,19.689C5.251,19.689 8.8,17.115 8.8,9.71C8.8,2.307 5.251,0.001 0,0.001L-1.328,0.001L-1.328,19.689L0,19.689ZM-8.327,-5.635L0.425,-5.635C9.88,-5.635 15.972,-0.93 15.972,9.71C15.972,20.352 9.88,25.324 0.816,25.324L-8.327,25.324L-8.327,-5.635Z" style="fill:white;fill-rule:nonzero;"/>
        </g>
        <g transform="matrix(1,0,0,1,1718.31,201.816)">
            <path d="M0,-0.269C0,-6.476 -2.665,-10.141 -6.888,-10.141C-11.112,-10.141 -13.777,-6.476 -13.777,-0.269C-13.777,5.939 -11.112,9.872 -6.888,9.872C-2.665,9.872 0,5.939 0,-0.269M-20.949,-0.269C-20.949,-10.384 -15.238,-16.184 -6.888,-16.184C1.461,-16.184 7.172,-10.345 7.172,-0.269C7.172,9.846 1.461,15.915 -6.888,15.915C-15.238,15.915 -20.949,9.846 -20.949,-0.269" style="fill:white;fill-rule:nonzero;"/>
        </g>
        <g transform="matrix(1,0,0,1,1729.85,201.503)">
            <path d="M0,0.357C0,-9.914 6.791,-15.871 14.614,-15.871C18.616,-15.871 21.84,-13.988 23.925,-11.853L20.235,-7.364C18.682,-8.811 17.011,-9.828 14.771,-9.828C10.525,-9.828 7.172,-6.085 7.172,0.123C7.172,6.486 10.134,10.185 14.659,10.185C17.201,10.185 19.202,8.933 20.715,7.29L24.405,11.685C21.834,14.674 18.414,16.228 14.407,16.228C6.556,16.228 0,10.785 0,0.357" style="fill:white;fill-rule:nonzero;"/>
        </g>
    </g>
</svg>
