<?xml version="1.0" encoding="UTF-8" standalone="no"?>
<!DOCTYPE svg PUBLIC "-//W3C//DTD SVG 1.1//EN" "http://www.w3.org/Graphics/SVG/1.1/DTD/svg11.dtd">
<svg width="100%" height="100%" viewBox="0 0 190 214" version="1.1" xmlns="http://www.w3.org/2000/svg" xmlns:xlink="http://www.w3.org/1999/xlink" xml:space="preserve" xmlns:serif="http://www.serif.com/" style="fill-rule:evenodd;clip-rule:evenodd;stroke-linejoin:round;stroke-miterlimit:2;">
    <g transform="matrix(1,0,0,1,-2552.74,-575.183)">
        <g transform="matrix(1,0,0,1,2707.25,597.62)">
            <path d="M0,168.452C0,173.599 -4.187,177.787 -9.335,177.787L-132.067,177.787C-137.215,177.787 -141.402,173.599 -141.402,168.452L-141.402,32.511L-116.717,32.511C-103.849,32.511 -93.321,21.982 -93.321,9.114L-93.321,-9.335L-9.335,-9.335C-4.187,-9.335 0,-5.147 0,0L0,72.996L13.102,72.996L13.102,0C13.102,-12.372 3.037,-22.437 -9.335,-22.437L-102.845,-22.437L-154.504,22.664L-154.504,168.452C-154.504,180.824 -144.439,190.889 -132.067,190.889L-9.335,190.889C3.037,190.889 13.102,180.824 13.102,168.452L13.102,150.31L0,150.31L0,168.452Z" style="fill:rgb(8,89,155);fill-rule:nonzero;"/>
        </g>
        <g transform="matrix(1,0,0,1,2732.19,742.101)">
            <path d="M0,-60.255L-125.754,-60.255C-131.416,-60.255 -136.048,-55.622 -136.048,-49.961L-136.048,-10.294C-136.048,-4.632 -131.416,0 -125.754,0L0,0C5.662,0 10.294,-4.632 10.294,-10.294L10.294,-49.961C10.294,-55.622 5.662,-60.255 0,-60.255" style="fill:rgb(8,89,155);fill-rule:nonzero;"/>
        </g>
        <g transform="matrix(1,0,0,1,2621.93,701.866)">
            <path d="M0,19.689C5.251,19.689 8.8,17.114 8.8,9.71C8.8,2.306 5.251,0 0,0L-1.328,0L-1.328,19.689L0,19.689ZM-8.327,-5.635L0.425,-5.635C9.88,-5.635 15.973,-0.931 15.973,9.71C15.973,20.351 9.88,25.324 0.816,25.324L-8.327,25.324L-8.327,-5.635Z" style="fill:white;fill-rule:nonzero;"/>
        </g>
        <g transform="matrix(1,0,0,1,2663.25,711.845)">
            <path d="M0,-0.268C0,-6.476 -2.665,-10.14 -6.889,-10.14C-11.112,-10.14 -13.776,-6.476 -13.776,-0.268C-13.776,5.939 -11.112,9.872 -6.889,9.872C-2.665,9.872 0,5.939 0,-0.268M-20.949,-0.268C-20.949,-10.383 -15.238,-16.184 -6.889,-16.184C1.461,-16.184 7.173,-10.344 7.173,-0.268C7.173,9.846 1.461,15.916 -6.889,15.916C-15.238,15.916 -20.949,9.846 -20.949,-0.268" style="fill:white;fill-rule:nonzero;"/>
        </g>
        <g transform="matrix(1,0,0,1,2674.79,711.531)">
            <path d="M0,0.358C0,-9.913 6.79,-15.871 14.614,-15.871C18.615,-15.871 21.84,-13.987 23.925,-11.852L20.235,-7.363C18.682,-8.81 17.011,-9.827 14.771,-9.827C10.525,-9.827 7.173,-6.083 7.173,0.124C7.173,6.487 10.134,10.185 14.659,10.185C17.201,10.185 19.201,8.934 20.716,7.292L24.405,11.685C21.835,14.675 18.414,16.229 14.407,16.229C6.556,16.229 0,10.787 0,0.358" style="fill:white;fill-rule:nonzero;"/>
        </g>
        <g transform="matrix(1,0,0,1,2708.97,712.163)">
            <path d="M0,-0.905L-8.052,-15.932L-0.253,-15.932L2.438,-10.078C3.138,-8.653 3.802,-7.06 4.69,-5.115L4.881,-5.115C5.596,-7.06 6.244,-8.653 6.864,-10.078L9.321,-15.932L16.791,-15.932L8.738,-0.576L17.299,15.027L9.5,15.027L6.445,8.714C5.668,7.116 4.953,5.517 4.126,3.617L3.937,3.617C3.204,5.517 2.506,7.116 1.808,8.714L-1.092,15.027L-8.561,15.027L0,-0.905Z" style="fill:white;fill-rule:nonzero;"/>
        </g>
    </g>
</svg>
