<?xml version="1.0" encoding="UTF-8" standalone="no"?>
<!DOCTYPE svg PUBLIC "-//W3C//DTD SVG 1.1//EN" "http://www.w3.org/Graphics/SVG/1.1/DTD/svg11.dtd">
<svg width="100%" height="100%" viewBox="0 0 190 214" version="1.1" xmlns="http://www.w3.org/2000/svg" xmlns:xlink="http://www.w3.org/1999/xlink" xml:space="preserve" xmlns:serif="http://www.serif.com/" style="fill-rule:evenodd;clip-rule:evenodd;stroke-linejoin:round;stroke-miterlimit:2;">
    <g transform="matrix(1,0,0,1,-2311.43,-575.183)">
        <g transform="matrix(1,0,0,1,2465.94,597.62)">
            <path d="M0,168.452C0,173.599 -4.187,177.787 -9.334,177.787L-132.067,177.787C-137.214,177.787 -141.402,173.599 -141.402,168.452L-141.402,32.511L-116.717,32.511C-103.849,32.511 -93.321,21.982 -93.321,9.114L-93.321,-9.335L-9.334,-9.335C-4.187,-9.335 0,-5.147 0,0L0,72.996L13.102,72.996L13.102,0C13.102,-12.372 3.037,-22.437 -9.334,-22.437L-102.845,-22.437L-154.504,22.664L-154.504,168.452C-154.504,180.824 -144.439,190.889 -132.067,190.889L-9.334,190.889C3.037,190.889 13.102,180.824 13.102,168.452L13.102,150.31L0,150.31L0,168.452Z" style="fill:rgb(191,25,148);fill-rule:nonzero;"/>
        </g>
        <g transform="matrix(1,0,0,1,2490.88,742.101)">
            <path d="M0,-60.255L-125.754,-60.255C-131.416,-60.255 -136.048,-55.622 -136.048,-49.961L-136.048,-10.294C-136.048,-4.632 -131.416,0 -125.754,0L0,0C5.662,0 10.294,-4.632 10.294,-10.294L10.294,-49.961C10.294,-55.622 5.662,-60.255 0,-60.255" style="fill:rgb(191,25,148);fill-rule:nonzero;"/>
        </g>
        <g transform="matrix(1,0,0,1,2389.59,701.866)">
            <path d="M0,19.689C5.251,19.689 8.8,17.114 8.8,9.71C8.8,2.306 5.251,0 0,0L-1.328,0L-1.328,19.689L0,19.689ZM-8.327,-5.635L0.425,-5.635C9.88,-5.635 15.973,-0.931 15.973,9.71C15.973,20.351 9.88,25.324 0.816,25.324L-8.327,25.324L-8.327,-5.635Z" style="fill:white;fill-rule:nonzero;"/>
        </g>
        <g transform="matrix(1,0,0,1,2408.32,727.19)">
            <path d="M0,-30.959L7.172,-30.959L9.317,-16.499C9.725,-13.235 10.172,-9.972 10.58,-6.708L10.77,-6.708C11.373,-9.972 11.993,-13.274 12.613,-16.499L15.943,-30.959L21.88,-30.959L25.21,-16.499C25.83,-13.353 26.45,-10.011 27.07,-6.708L27.261,-6.708C27.668,-10.011 28.099,-13.313 28.506,-16.499L30.651,-30.959L37.337,-30.959L31.839,0L23.039,0L20.012,-14.062C19.521,-16.453 19.107,-18.935 18.771,-21.248L18.582,-21.248C18.207,-18.935 17.816,-16.453 17.324,-14.062L14.393,0L5.749,0L0,-30.959Z" style="fill:white;fill-rule:nonzero;"/>
        </g>
        <g transform="matrix(1,0,0,1,2448.39,711.531)">
            <path d="M0,0.358C0,-9.913 6.824,-15.871 15.089,-15.871C19.582,-15.871 22.773,-13.954 24.858,-11.852L21.169,-7.363C19.632,-8.777 17.978,-9.827 15.324,-9.827C10.559,-9.827 7.173,-6.083 7.173,0.124C7.173,6.487 10.056,10.185 15.883,10.185C17.123,10.185 18.407,9.862 19.161,9.264L19.161,3.919L14.032,3.919L14.032,-1.794L25.378,-1.794L25.378,12.479C23.243,14.569 19.481,16.229 15.162,16.229C6.634,16.229 0,10.787 0,0.358" style="fill:white;fill-rule:nonzero;"/>
        </g>
    </g>
</svg>
