<?xml version="1.0" encoding="UTF-8" standalone="no"?>
<!DOCTYPE svg PUBLIC "-//W3C//DTD SVG 1.1//EN" "http://www.w3.org/Graphics/SVG/1.1/DTD/svg11.dtd">
<svg width="100%" height="100%" viewBox="0 0 190 214" version="1.1" xmlns="http://www.w3.org/2000/svg" xmlns:xlink="http://www.w3.org/1999/xlink" xml:space="preserve" xmlns:serif="http://www.serif.com/" style="fill-rule:evenodd;clip-rule:evenodd;stroke-linejoin:round;stroke-miterlimit:2;">
    <g transform="matrix(1,0,0,1,-1341.33,-575.183)">
        <g transform="matrix(1,0,0,1,1495.84,597.62)">
            <path d="M0,168.452C0,173.599 -4.188,177.787 -9.335,177.787L-132.067,177.787C-137.215,177.787 -141.402,173.599 -141.402,168.452L-141.402,32.511L-116.717,32.511C-103.849,32.511 -93.321,21.982 -93.321,9.114L-93.321,-9.335L-9.335,-9.335C-4.188,-9.335 0,-5.147 0,0L0,72.996L13.102,72.996L13.102,0C13.102,-12.372 3.037,-22.437 -9.335,-22.437L-102.845,-22.437L-154.504,22.664L-154.504,168.452C-154.504,180.824 -144.439,190.889 -132.067,190.889L-9.335,190.889C3.037,190.889 13.102,180.824 13.102,168.452L13.102,150.31L0,150.31L0,168.452Z" style="fill:rgb(14,93,137);fill-rule:nonzero;"/>
        </g>
        <g transform="matrix(1,0,0,1,1520.78,742.101)">
            <path d="M0,-60.255L-125.754,-60.255C-131.416,-60.255 -136.048,-55.622 -136.048,-49.961L-136.048,-10.294C-136.048,-4.632 -131.416,0 -125.754,0L0,0C5.662,0 10.294,-4.632 10.294,-10.294L10.294,-49.961C10.294,-55.622 5.662,-60.255 0,-60.255" style="fill:rgb(14,93,137);fill-rule:nonzero;"/>
        </g>
        <g transform="matrix(1,0,0,1,1420.48,727.19)">
            <path d="M0,-30.959L19.398,-30.959L19.398,-25.089L6.999,-25.089L6.999,-18.872L17.554,-18.872L17.554,-13.003L6.999,-13.003L6.999,-5.87L19.873,-5.87L19.873,0L0,0L0,-30.959Z" style="fill:white;fill-rule:nonzero;"/>
        </g>
        <g transform="matrix(1,0,0,1,1456.92,712.294)">
            <path d="M0,-1.165C3.849,-1.165 5.67,-2.88 5.67,-6.103C5.67,-9.344 3.597,-10.506 -0.19,-10.506L-3.414,-10.506L-3.414,-1.165L0,-1.165ZM-10.413,-16.062L0.224,-16.062C7.036,-16.062 12.529,-13.626 12.529,-6.103C12.529,1.173 6.974,4.393 0.414,4.393L-3.414,4.393L-3.414,14.897L-10.413,14.897L-10.413,-16.062Z" style="fill:white;fill-rule:nonzero;"/>
        </g>
        <g transform="matrix(1,0,0,1,1472.34,700.138)">
            <path d="M0,23.146L4.02,18.344C6.221,20.26 9.077,21.579 11.625,21.579C14.546,21.579 15.976,20.428 15.976,18.591C15.976,16.642 14.216,16.016 11.511,14.905L7.488,13.189C4.28,11.884 1.24,9.249 1.24,4.75C1.24,-0.38 5.823,-4.477 12.267,-4.477C15.833,-4.477 19.56,-3.072 22.226,-0.419L18.693,3.992C16.653,2.427 14.714,1.567 12.267,1.567C9.854,1.567 8.318,2.572 8.318,4.342C8.318,6.242 10.343,6.931 13.045,8.007L16.99,9.605C20.771,11.133 23.131,13.651 23.131,18.027C23.131,23.167 18.845,27.623 11.468,27.623C7.439,27.623 3.158,26.097 0,23.146" style="fill:white;fill-rule:nonzero;"/>
        </g>
    </g>
</svg>
