<?xml version="1.0" encoding="UTF-8" standalone="no"?>
<!DOCTYPE svg PUBLIC "-//W3C//DTD SVG 1.1//EN" "http://www.w3.org/Graphics/SVG/1.1/DTD/svg11.dtd">
<svg width="100%" height="100%" viewBox="0 0 190 214" version="1.1" xmlns="http://www.w3.org/2000/svg" xmlns:xlink="http://www.w3.org/1999/xlink" xml:space="preserve" xmlns:serif="http://www.serif.com/" style="fill-rule:evenodd;clip-rule:evenodd;stroke-linejoin:round;stroke-miterlimit:2;">
    <g transform="matrix(1,0,0,1,-1826.76,-575.183)">
        <g transform="matrix(1,0,0,1,1981.27,597.62)">
            <path d="M0,168.452C0,173.599 -4.187,177.787 -9.335,177.787L-132.067,177.787C-137.215,177.787 -141.402,173.599 -141.402,168.452L-141.402,32.511L-116.717,32.511C-103.849,32.511 -93.321,21.982 -93.321,9.114L-93.321,-9.335L-9.335,-9.335C-4.187,-9.335 0,-5.147 0,0L0,72.996L13.102,72.996L13.102,0C13.102,-12.372 3.037,-22.437 -9.335,-22.437L-102.845,-22.437L-154.504,22.664L-154.504,168.452C-154.504,180.824 -144.439,190.889 -132.067,190.889L-9.335,190.889C3.037,190.889 13.102,180.824 13.102,168.452L13.102,150.31L0,150.31L0,168.452Z" style="fill:rgb(249,68,13);fill-rule:nonzero;"/>
        </g>
        <g transform="matrix(1,0,0,1,2006.21,742.101)">
            <path d="M0,-60.255L-125.754,-60.255C-131.416,-60.255 -136.048,-55.622 -136.048,-49.961L-136.048,-10.294C-136.048,-4.632 -131.416,0 -125.754,0L0,0C5.662,0 10.294,-4.632 10.294,-10.294L10.294,-49.961C10.294,-55.622 5.662,-60.255 0,-60.255" style="fill:rgb(249,68,13);fill-rule:nonzero;"/>
        </g>
        <g transform="matrix(1,0,0,1,1906.55,727.19)">
            <path d="M0,-30.959L19.398,-30.959L19.398,-25.089L6.999,-25.089L6.999,-18.872L17.554,-18.872L17.554,-13.003L6.999,-13.003L6.999,-5.87L19.873,-5.87L19.873,0L0,0L0,-30.959Z" style="fill:white;fill-rule:nonzero;"/>
        </g>
        <g transform="matrix(1,0,0,1,1938.03,712.163)">
            <path d="M0,-0.905L-8.052,-15.932L-0.253,-15.932L2.439,-10.078C3.137,-8.653 3.802,-7.06 4.691,-5.115L4.881,-5.115C5.596,-7.06 6.244,-8.653 6.864,-10.078L9.322,-15.932L16.791,-15.932L8.738,-0.576L17.299,15.027L9.5,15.027L6.445,8.714C5.668,7.116 4.953,5.517 4.126,3.617L3.936,3.617C3.204,5.517 2.506,7.116 1.807,8.714L-1.092,15.027L-8.561,15.027L0,-0.905Z" style="fill:white;fill-rule:nonzero;"/>
        </g>
        <g transform="matrix(1,0,0,1,1959.51,727.19)">
            <path d="M0,-30.959L19.398,-30.959L19.398,-25.089L6.999,-25.089L6.999,-18.872L17.554,-18.872L17.554,-13.003L6.999,-13.003L6.999,-5.87L19.873,-5.87L19.873,0L0,0L0,-30.959Z" style="fill:white;fill-rule:nonzero;"/>
        </g>
    </g>
</svg>
