<?xml version="1.0" encoding="UTF-8" standalone="no"?>
<!DOCTYPE svg PUBLIC "-//W3C//DTD SVG 1.1//EN" "http://www.w3.org/Graphics/SVG/1.1/DTD/svg11.dtd">
<svg width="100%" height="100%" viewBox="0 0 190 214" version="1.1" xmlns="http://www.w3.org/2000/svg" xmlns:xlink="http://www.w3.org/1999/xlink" xml:space="preserve" xmlns:serif="http://www.serif.com/" style="fill-rule:evenodd;clip-rule:evenodd;stroke-linejoin:round;stroke-miterlimit:2;">
    <g transform="matrix(1,0,0,1,-1099.56,-575.183)">
        <g transform="matrix(1,0,0,1,1254.07,597.62)">
            <path d="M0,168.452C0,173.599 -4.187,177.787 -9.335,177.787L-132.067,177.787C-137.214,177.787 -141.402,173.599 -141.402,168.452L-141.402,32.511L-116.717,32.511C-103.849,32.511 -93.321,21.982 -93.321,9.114L-93.321,-9.335L-9.335,-9.335C-4.187,-9.335 0,-5.147 0,0L0,72.996L13.102,72.996L13.102,0C13.102,-12.372 3.037,-22.437 -9.335,-22.437L-102.845,-22.437L-154.504,22.664L-154.504,168.452C-154.504,180.824 -144.439,190.889 -132.067,190.889L-9.335,190.889C3.037,190.889 13.102,180.824 13.102,168.452L13.102,150.31L0,150.31L0,168.452Z" style="fill:rgb(58,130,155);fill-rule:nonzero;"/>
        </g>
        <g transform="matrix(1,0,0,1,1279.01,742.101)">
            <path d="M0,-60.255L-125.754,-60.255C-131.416,-60.255 -136.048,-55.622 -136.048,-49.961L-136.048,-10.294C-136.048,-4.632 -131.416,0 -125.754,0L0,0C5.662,0 10.294,-4.632 10.294,-10.294L10.294,-49.961C10.294,-55.622 5.662,-60.255 0,-60.255" style="fill:rgb(58,130,155);fill-rule:nonzero;"/>
        </g>
        <g transform="matrix(1,0,0,1,1159.23,727.19)">
            <path d="M0,-30.959L6.999,-30.959L6.999,-19.029L17.686,-19.029L17.686,-30.959L24.686,-30.959L24.686,0L17.686,0L17.686,-12.924L6.999,-12.924L6.999,0L0,0L0,-30.959Z" style="fill:white;fill-rule:nonzero;"/>
        </g>
        <g transform="matrix(1,0,0,1,1197.31,721.32)">
            <path d="M0,-19.219L-8.521,-19.219L-8.521,-25.089L15.521,-25.089L15.521,-19.219L7,-19.219L7,5.87L0,5.87L0,-19.219Z" style="fill:white;fill-rule:nonzero;"/>
        </g>
        <g transform="matrix(1,0,0,1,1217.66,727.19)">
            <path d="M0,-30.959L7.636,-30.959L12.659,-17.203C13.279,-15.376 13.821,-13.393 14.441,-11.487L14.631,-11.487C15.251,-13.393 15.777,-15.376 16.397,-17.203L21.264,-30.959L28.9,-30.959L28.9,0L22.526,0L22.526,-11.361C22.526,-14.379 23.091,-18.884 23.421,-21.88L23.231,-21.88L20.691,-14.554L16.314,-2.693L12.429,-2.693L8.043,-14.554L5.574,-21.88L5.383,-21.88C5.713,-18.884 6.278,-14.379 6.278,-11.361L6.278,0L0,0L0,-30.959Z" style="fill:white;fill-rule:nonzero;"/>
        </g>
        <g transform="matrix(1,0,0,1,1253.86,727.19)">
            <path d="M0,-30.959L6.999,-30.959L6.999,-5.87L19.22,-5.87L19.22,0L0,0L0,-30.959Z" style="fill:white;fill-rule:nonzero;"/>
        </g>
    </g>
</svg>
