<?xml version="1.0" encoding="UTF-8" standalone="no"?>
<!DOCTYPE svg PUBLIC "-//W3C//DTD SVG 1.1//EN" "http://www.w3.org/Graphics/SVG/1.1/DTD/svg11.dtd">
<svg width="100%" height="100%" viewBox="0 0 190 214" version="1.1" xmlns="http://www.w3.org/2000/svg" xmlns:xlink="http://www.w3.org/1999/xlink" xml:space="preserve" xmlns:serif="http://www.serif.com/" style="fill-rule:evenodd;clip-rule:evenodd;stroke-linejoin:round;stroke-miterlimit:2;">
    <g transform="matrix(1,0,0,1,-3031.15,-575.183)">
        <g transform="matrix(1,0,0,1,3185.65,597.62)">
            <path d="M0,168.452C0,173.599 -4.188,177.787 -9.335,177.787L-132.068,177.787C-137.215,177.787 -141.402,173.599 -141.402,168.452L-141.402,32.511L-116.717,32.511C-103.849,32.511 -93.321,21.982 -93.321,9.114L-93.321,-9.335L-9.335,-9.335C-4.188,-9.335 0,-5.147 0,0L0,72.996L13.102,72.996L13.102,0C13.102,-12.372 3.037,-22.437 -9.335,-22.437L-102.845,-22.437L-154.504,22.664L-154.504,168.452C-154.504,180.824 -144.439,190.889 -132.068,190.889L-9.335,190.889C3.037,190.889 13.102,180.824 13.102,168.452L13.102,150.31L0,150.31L0,168.452Z" style="fill:rgb(148,67,181);fill-rule:nonzero;"/>
        </g>
        <g transform="matrix(1,0,0,1,3210.6,742.101)">
            <path d="M0,-60.255L-125.754,-60.255C-131.416,-60.255 -136.048,-55.622 -136.048,-49.961L-136.048,-10.294C-136.048,-4.632 -131.416,0 -125.754,0L0,0C5.662,0 10.294,-4.632 10.294,-10.294L10.294,-49.961C10.294,-55.622 5.662,-60.255 0,-60.255" style="fill:rgb(148,67,181);fill-rule:nonzero;"/>
        </g>
        <g transform="matrix(3.23161,0,0,3.23161,-6950.02,-1582.98)">
            <g transform="matrix(12,0,0,12,3142.34,714.718)">
            </g>
            <text x="3105.68px" y="714.718px" style="font-family:'Arial-Black', 'Arial Black', sans-serif;font-weight:900;font-size:12px;fill:white;">JSON</text>
        </g>
    </g>
</svg>
