<?xml version="1.0" encoding="UTF-8" standalone="no"?>
<!DOCTYPE svg PUBLIC "-//W3C//DTD SVG 1.1//EN" "http://www.w3.org/Graphics/SVG/1.1/DTD/svg11.dtd">
<svg width="100%" height="100%" viewBox="0 0 190 214" version="1.1" xmlns="http://www.w3.org/2000/svg" xmlns:xlink="http://www.w3.org/1999/xlink" xml:space="preserve" xmlns:serif="http://www.serif.com/" style="fill-rule:evenodd;clip-rule:evenodd;stroke-linejoin:round;stroke-miterlimit:2;">
    <g transform="matrix(1,0,0,1,-2323.32,-65.1538)">
        <g transform="matrix(1,0,0,1,2477.82,87.5908)">
            <path d="M0,168.452C0,173.599 -4.187,177.787 -9.335,177.787L-132.067,177.787C-137.215,177.787 -141.402,173.599 -141.402,168.452L-141.402,32.511L-116.717,32.511C-103.849,32.511 -93.321,21.982 -93.321,9.114L-93.321,-9.335L-9.335,-9.335C-4.187,-9.335 0,-5.147 0,0L0,72.996L13.102,72.996L13.102,0C13.102,-12.372 3.037,-22.437 -9.335,-22.437L-102.845,-22.437L-154.504,22.664L-154.504,168.452C-154.504,180.824 -144.439,190.889 -132.067,190.889L-9.335,190.889C3.037,190.889 13.102,180.824 13.102,168.452L13.102,150.31L0,150.31L0,168.452Z" style="fill:rgb(198,74,160);fill-rule:nonzero;"/>
        </g>
        <g transform="matrix(1,0,0,1,2502.77,232.072)">
            <path d="M0,-60.255L-125.754,-60.255C-131.416,-60.255 -136.048,-55.622 -136.048,-49.961L-136.048,-10.294C-136.048,-4.632 -131.416,0 -125.754,0L0,0C5.662,0 10.294,-4.632 10.294,-10.294L10.294,-49.961C10.294,-55.622 5.662,-60.255 0,-60.255" style="fill:rgb(198,74,160);fill-rule:nonzero;"/>
        </g>
        <g transform="matrix(1,0,0,1,2395.48,217.16)">
            <path d="M0,-30.959L7.636,-30.959L12.659,-17.203C13.279,-15.376 13.821,-13.393 14.441,-11.487L14.632,-11.487C15.252,-13.393 15.776,-15.376 16.397,-17.203L21.264,-30.959L28.899,-30.959L28.899,0L22.526,0L22.526,-11.361C22.526,-14.379 23.091,-18.884 23.421,-21.88L23.231,-21.88L20.691,-14.553L16.314,-2.693L12.429,-2.693L8.044,-14.553L5.573,-21.88L5.384,-21.88C5.713,-18.884 6.278,-14.379 6.278,-11.361L6.278,0L0,0L0,-30.959Z" style="fill:white;fill-rule:nonzero;"/>
        </g>
        <g transform="matrix(1,0,0,1,2451.16,201.816)">
            <path d="M0,-0.269C0,-6.476 -2.665,-10.141 -6.889,-10.141C-11.112,-10.141 -13.776,-6.476 -13.776,-0.269C-13.776,5.939 -11.112,9.872 -6.889,9.872C-2.665,9.872 0,5.939 0,-0.269M-20.949,-0.269C-20.949,-10.384 -15.238,-16.184 -6.889,-16.184C1.461,-16.184 7.173,-10.345 7.173,-0.269C7.173,9.846 1.461,15.915 -6.889,15.915C-15.238,15.915 -20.949,9.846 -20.949,-0.269" style="fill:white;fill-rule:nonzero;"/>
        </g>
        <g transform="matrix(1,0,0,1,2459.7,217.16)">
            <path d="M0,-30.959L7.407,-30.959L11.139,-16.532C12.061,-13.146 12.681,-10.022 13.619,-6.605L13.81,-6.605C14.748,-10.022 15.407,-13.146 16.29,-16.532L19.943,-30.959L27.1,-30.959L17.762,0L9.354,0L0,-30.959Z" style="fill:white;fill-rule:nonzero;"/>
        </g>
    </g>
</svg>
