<?xml version="1.0" encoding="UTF-8" standalone="no"?>
<!DOCTYPE svg PUBLIC "-//W3C//DTD SVG 1.1//EN" "http://www.w3.org/Graphics/SVG/1.1/DTD/svg11.dtd">
<svg width="100%" height="100%" viewBox="0 0 190 214" version="1.1" xmlns="http://www.w3.org/2000/svg" xmlns:xlink="http://www.w3.org/1999/xlink" xml:space="preserve" xmlns:serif="http://www.serif.com/" style="fill-rule:evenodd;clip-rule:evenodd;stroke-linejoin:round;stroke-miterlimit:2;">
    <g transform="matrix(1,0,0,1,-2808.75,-65.1538)">
        <g transform="matrix(1,0,0,1,2963.25,87.5908)">
            <path d="M0,168.452C0,173.599 -4.187,177.787 -9.334,177.787L-132.067,177.787C-137.214,177.787 -141.402,173.599 -141.402,168.452L-141.402,32.511L-116.717,32.511C-103.849,32.511 -93.321,21.982 -93.321,9.114L-93.321,-9.335L-9.334,-9.335C-4.187,-9.335 0,-5.147 0,0L0,72.996L13.102,72.996L13.102,0C13.102,-12.372 3.037,-22.437 -9.334,-22.437L-102.845,-22.437L-154.504,22.664L-154.504,168.452C-154.504,180.824 -144.439,190.889 -132.067,190.889L-9.334,190.889C3.037,190.889 13.102,180.824 13.102,168.452L13.102,150.31L0,150.31L0,168.452Z" style="fill:rgb(32,138,221);fill-rule:nonzero;"/>
        </g>
        <g transform="matrix(1,0,0,1,2988.2,232.072)">
            <path d="M0,-60.255L-125.754,-60.255C-131.416,-60.255 -136.048,-55.622 -136.048,-49.961L-136.048,-10.294C-136.048,-4.632 -131.416,0 -125.754,0L0,0C5.662,0 10.294,-4.632 10.294,-10.294L10.294,-49.961C10.294,-55.622 5.662,-60.255 0,-60.255" style="fill:rgb(32,138,221);fill-rule:nonzero;"/>
        </g>
        <g transform="matrix(1,0,0,1,2883.24,217.16)">
            <path d="M0,-30.959L7.636,-30.959L12.659,-17.203C13.279,-15.376 13.821,-13.393 14.441,-11.487L14.632,-11.487C15.252,-13.393 15.776,-15.376 16.397,-17.203L21.264,-30.959L28.899,-30.959L28.899,0L22.526,0L22.526,-11.361C22.526,-14.379 23.091,-18.884 23.421,-21.88L23.231,-21.88L20.691,-14.553L16.314,-2.693L12.429,-2.693L8.044,-14.553L5.573,-21.88L5.384,-21.88C5.713,-18.884 6.278,-14.379 6.278,-11.361L6.278,0L0,0L0,-30.959Z" style="fill:white;fill-rule:nonzero;"/>
        </g>
        <g transform="matrix(1,0,0,1,2929.85,202.262)">
            <path d="M0,-1.163C3.85,-1.163 5.671,-2.878 5.671,-6.102C5.671,-9.342 3.598,-10.504 -0.189,-10.504L-3.413,-10.504L-3.413,-1.163L0,-1.163ZM-10.412,-16.061L0.224,-16.061C7.036,-16.061 12.53,-13.624 12.53,-6.102C12.53,1.175 6.975,4.394 0.414,4.394L-3.413,4.394L-3.413,14.898L-10.412,14.898L-10.412,-16.061Z" style="fill:white;fill-rule:nonzero;"/>
        </g>
        <g transform="matrix(1,0,0,1,2945.12,190.7)">
            <path d="M0,22.755L3.221,18.344C5.064,20.105 7.3,21.395 9.83,21.395C12.774,21.395 14.735,20.11 14.735,17.792C14.735,15.144 13.188,13.513 6.629,13.513L6.629,8.566C12.048,8.566 13.752,6.918 13.752,4.527C13.752,2.404 12.4,1.203 10.032,1.203C7.886,1.203 6.261,2.175 4.394,3.84L0.86,-0.414C3.639,-2.8 6.673,-4.275 10.345,-4.275C16.61,-4.275 20.752,-1.302 20.752,4.001C20.752,7.108 18.969,9.335 15.723,10.701L15.723,10.891C19.209,11.886 21.735,14.345 21.735,18.245C21.735,23.861 16.588,27.03 10.519,27.03C5.634,27.03 2.214,25.298 0,22.755" style="fill:white;fill-rule:nonzero;"/>
        </g>
    </g>
</svg>
