<?xml version="1.0" encoding="UTF-8" standalone="no"?>
<!DOCTYPE svg PUBLIC "-//W3C//DTD SVG 1.1//EN" "http://www.w3.org/Graphics/SVG/1.1/DTD/svg11.dtd">
<svg width="100%" height="100%" viewBox="0 0 190 214" version="1.1" xmlns="http://www.w3.org/2000/svg" xmlns:xlink="http://www.w3.org/1999/xlink" xml:space="preserve" xmlns:serif="http://www.serif.com/" style="fill-rule:evenodd;clip-rule:evenodd;stroke-linejoin:round;stroke-miterlimit:2;">
    <g transform="matrix(1,0,0,1,-2801.99,-320.169)">
        <g transform="matrix(1,0,0,1,2956.49,342.605)">
            <path d="M0,168.453C0,173.6 -4.187,177.788 -9.335,177.788L-132.067,177.788C-137.215,177.788 -141.402,173.6 -141.402,168.453L-141.402,32.512L-116.717,32.512C-103.849,32.512 -93.321,21.983 -93.321,9.115L-93.321,-9.334L-9.335,-9.334C-4.187,-9.334 0,-5.146 0,0.001L0,72.997L13.102,72.997L13.102,0.001C13.102,-12.371 3.037,-22.436 -9.335,-22.436L-102.845,-22.436L-154.504,22.665L-154.504,168.453C-154.504,180.825 -144.439,190.889 -132.067,190.889L-9.335,190.889C3.037,190.889 13.102,180.825 13.102,168.453L13.102,150.311L0,150.311L0,168.453Z" style="fill:rgb(19,61,155);fill-rule:nonzero;"/>
        </g>
        <g transform="matrix(1,0,0,1,2981.44,487.087)">
            <path d="M0,-60.255L-125.754,-60.255C-131.416,-60.255 -136.048,-55.622 -136.048,-49.961L-136.048,-10.294C-136.048,-4.632 -131.416,0 -125.754,0L0,0C5.662,0 10.294,-4.632 10.294,-10.294L10.294,-49.961C10.294,-55.622 5.662,-60.255 0,-60.255" style="fill:rgb(19,61,155);fill-rule:nonzero;"/>
        </g>
        <g transform="matrix(1,0,0,1,2876.48,472.176)">
            <path d="M0,-30.959L7.636,-30.959L12.659,-17.203C13.279,-15.376 13.821,-13.393 14.441,-11.487L14.632,-11.487C15.252,-13.393 15.776,-15.376 16.397,-17.203L21.264,-30.959L28.899,-30.959L28.899,0L22.526,0L22.526,-11.361C22.526,-14.379 23.091,-18.884 23.421,-21.88L23.231,-21.88L20.691,-14.554L16.314,-2.693L12.429,-2.693L8.044,-14.554L5.573,-21.88L5.384,-21.88C5.713,-18.884 6.278,-14.379 6.278,-11.361L6.278,0L0,0L0,-30.959Z" style="fill:white;fill-rule:nonzero;"/>
        </g>
        <g transform="matrix(1,0,0,1,2923.08,457.279)">
            <path d="M0,-1.165C3.85,-1.165 5.671,-2.88 5.671,-6.103C5.671,-9.344 3.598,-10.506 -0.189,-10.506L-3.413,-10.506L-3.413,-1.165L0,-1.165ZM-10.412,-16.062L0.224,-16.062C7.036,-16.062 12.53,-13.626 12.53,-6.103C12.53,1.173 6.975,4.393 0.414,4.393L-3.413,4.393L-3.413,14.897L-10.412,14.897L-10.412,-16.062Z" style="fill:white;fill-rule:nonzero;"/>
        </g>
        <g transform="matrix(1,0,0,1,2951.29,459.453)">
            <path d="M0,-4.722C0,-6.639 0.174,-9.562 0.269,-11.479L0.078,-11.479C-0.682,-9.774 -1.536,-8.103 -2.392,-6.381L-6.351,0.204L9.994,0.204L9.994,5.526L-13.042,5.526L-13.042,0.695L-2.029,-17.444L6.513,-17.444L6.513,12.722L0,12.722L0,-4.722Z" style="fill:white;fill-rule:nonzero;"/>
        </g>
    </g>
</svg>
