<?xml version="1.0" encoding="UTF-8" standalone="no"?>
<!DOCTYPE svg PUBLIC "-//W3C//DTD SVG 1.1//EN" "http://www.w3.org/Graphics/SVG/1.1/DTD/svg11.dtd">
<svg width="100%" height="100%" viewBox="0 0 190 214" version="1.1" xmlns="http://www.w3.org/2000/svg" xmlns:xlink="http://www.w3.org/1999/xlink" xml:space="preserve" xmlns:serif="http://www.serif.com/" style="fill-rule:evenodd;clip-rule:evenodd;stroke-linejoin:round;stroke-miterlimit:2;">
    <g transform="matrix(1,0,0,1,-1111.45,-65.1538)">
        <g transform="matrix(1,0,0,1,1265.95,87.5908)">
            <path d="M0,168.452C0,173.599 -4.187,177.787 -9.335,177.787L-132.067,177.787C-137.215,177.787 -141.402,173.599 -141.402,168.452L-141.402,32.511L-116.717,32.511C-103.849,32.511 -93.321,21.982 -93.321,9.114L-93.321,-9.335L-9.335,-9.335C-4.187,-9.335 0,-5.147 0,0L0,72.996L13.102,72.996L13.102,0C13.102,-12.372 3.037,-22.437 -9.335,-22.437L-102.845,-22.437L-154.504,22.664L-154.504,168.452C-154.504,180.824 -144.439,190.889 -132.067,190.889L-9.335,190.889C3.037,190.889 13.102,180.824 13.102,168.452L13.102,150.31L0,150.31L0,168.452Z" style="fill:rgb(248,4,27);fill-rule:nonzero;"/>
        </g>
        <g transform="matrix(1,0,0,1,1290.9,232.072)">
            <path d="M0,-60.255L-125.754,-60.255C-131.416,-60.255 -136.048,-55.622 -136.048,-49.961L-136.048,-10.294C-136.048,-4.632 -131.416,0 -125.754,0L0,0C5.662,0 10.294,-4.632 10.294,-10.294L10.294,-49.961C10.294,-55.622 5.662,-60.255 0,-60.255" style="fill:rgb(248,4,27);fill-rule:nonzero;"/>
        </g>
        <g transform="matrix(1,0,0,1,1199.46,202.262)">
            <path d="M0,-1.163C3.849,-1.163 5.67,-2.878 5.67,-6.102C5.67,-9.342 3.597,-10.504 -0.19,-10.504L-3.414,-10.504L-3.414,-1.163L0,-1.163ZM-10.413,-16.061L0.224,-16.061C7.036,-16.061 12.529,-13.624 12.529,-6.102C12.529,1.175 6.974,4.394 0.414,4.394L-3.414,4.394L-3.414,14.898L-10.413,14.898L-10.413,-16.061Z" style="fill:white;fill-rule:nonzero;"/>
        </g>
        <g transform="matrix(1,0,0,1,1225.69,191.836)">
            <path d="M0,19.689C5.251,19.689 8.8,17.115 8.8,9.71C8.8,2.307 5.251,0.001 0,0.001L-1.328,0.001L-1.328,19.689L0,19.689ZM-8.327,-5.635L0.425,-5.635C9.88,-5.635 15.972,-0.93 15.972,9.71C15.972,20.352 9.88,25.324 0.816,25.324L-8.327,25.324L-8.327,-5.635Z" style="fill:white;fill-rule:nonzero;"/>
        </g>
        <g transform="matrix(1,0,0,1,1247.52,217.16)">
            <path d="M0,-30.959L19.538,-30.959L19.538,-25.089L6.999,-25.089L6.999,-17.911L17.711,-17.911L17.711,-12.041L6.999,-12.041L6.999,0L0,0L0,-30.959Z" style="fill:white;fill-rule:nonzero;"/>
        </g>
    </g>
</svg>
