<?xml version="1.0" encoding="UTF-8" standalone="no"?>
<!DOCTYPE svg PUBLIC "-//W3C//DTD SVG 1.1//EN" "http://www.w3.org/Graphics/SVG/1.1/DTD/svg11.dtd">
<svg width="100%" height="100%" viewBox="0 0 190 214" version="1.1" xmlns="http://www.w3.org/2000/svg" xmlns:xlink="http://www.w3.org/1999/xlink" xml:space="preserve" xmlns:serif="http://www.serif.com/" style="fill-rule:evenodd;clip-rule:evenodd;stroke-linejoin:round;stroke-miterlimit:2;">
    <g transform="matrix(1,0,0,1,-2069.66,-575.183)">
        <g transform="matrix(1,0,0,1,2224.17,597.62)">
            <path d="M0,168.452C0,173.599 -4.187,177.787 -9.335,177.787L-132.067,177.787C-137.215,177.787 -141.402,173.599 -141.402,168.452L-141.402,32.511L-116.717,32.511C-103.849,32.511 -93.321,21.982 -93.321,9.114L-93.321,-9.335L-9.335,-9.335C-4.187,-9.335 0,-5.147 0,0L0,72.996L13.102,72.996L13.102,0C13.102,-12.372 3.037,-22.437 -9.335,-22.437L-102.845,-22.437L-154.504,22.664L-154.504,168.452C-154.504,180.824 -144.439,190.889 -132.067,190.889L-9.335,190.889C3.037,190.889 13.102,180.824 13.102,168.452L13.102,150.31L0,150.31L0,168.452Z" style="fill:rgb(248,4,27);fill-rule:nonzero;"/>
        </g>
        <g transform="matrix(1,0,0,1,2249.11,742.101)">
            <path d="M0,-60.255L-125.754,-60.255C-131.416,-60.255 -136.048,-55.622 -136.048,-49.961L-136.048,-10.294C-136.048,-4.632 -131.416,0 -125.754,0L0,0C5.662,0 10.294,-4.632 10.294,-10.294L10.294,-49.961C10.294,-55.622 5.662,-60.255 0,-60.255" style="fill:rgb(248,4,27);fill-rule:nonzero;"/>
        </g>
        <g transform="matrix(1,0,0,1,2155.04,712.294)">
            <path d="M0,-1.165C3.85,-1.165 5.671,-2.88 5.671,-6.103C5.671,-9.344 3.598,-10.506 -0.189,-10.506L-3.413,-10.506L-3.413,-1.165L0,-1.165ZM-10.412,-16.062L0.224,-16.062C7.036,-16.062 12.53,-13.626 12.53,-6.103C12.53,1.173 6.975,4.393 0.414,4.393L-3.413,4.393L-3.413,14.897L-10.412,14.897L-10.412,-16.062Z" style="fill:white;fill-rule:nonzero;"/>
        </g>
        <g transform="matrix(1,0,0,1,2172.94,727.19)">
            <path d="M0,-30.959L6.999,-30.959L6.999,-19.029L17.687,-19.029L17.687,-30.959L24.686,-30.959L24.686,0L17.687,0L17.687,-12.924L6.999,-12.924L6.999,0L0,0L0,-30.959Z" style="fill:white;fill-rule:nonzero;"/>
        </g>
        <g transform="matrix(1,0,0,1,2215.37,712.294)">
            <path d="M0,-1.165C3.85,-1.165 5.671,-2.88 5.671,-6.103C5.671,-9.344 3.598,-10.506 -0.189,-10.506L-3.413,-10.506L-3.413,-1.165L0,-1.165ZM-10.412,-16.062L0.224,-16.062C7.036,-16.062 12.53,-13.626 12.53,-6.103C12.53,1.173 6.975,4.393 0.414,4.393L-3.413,4.393L-3.413,14.897L-10.412,14.897L-10.412,-16.062Z" style="fill:white;fill-rule:nonzero;"/>
        </g>
    </g>
</svg>
