<?xml version="1.0" encoding="UTF-8" standalone="no"?>
<!DOCTYPE svg PUBLIC "-//W3C//DTD SVG 1.1//EN" "http://www.w3.org/Graphics/SVG/1.1/DTD/svg11.dtd">
<svg width="100%" height="100%" viewBox="0 0 190 214" version="1.1" xmlns="http://www.w3.org/2000/svg" xmlns:xlink="http://www.w3.org/1999/xlink" xml:space="preserve" xmlns:serif="http://www.serif.com/" style="fill-rule:evenodd;clip-rule:evenodd;stroke-linejoin:round;stroke-miterlimit:2;">
    <g transform="matrix(1,0,0,1,-2564.63,-65.1538)">
        <g transform="matrix(1,0,0,1,2719.13,87.5908)">
            <path d="M0,168.452C0,173.599 -4.188,177.787 -9.335,177.787L-132.068,177.787C-137.215,177.787 -141.402,173.599 -141.402,168.452L-141.402,32.511L-116.717,32.511C-103.849,32.511 -93.321,21.982 -93.321,9.114L-93.321,-9.335L-9.335,-9.335C-4.188,-9.335 0,-5.147 0,0L0,72.996L13.102,72.996L13.102,0C13.102,-12.372 3.037,-22.437 -9.335,-22.437L-102.845,-22.437L-154.504,22.664L-154.504,168.452C-154.504,180.824 -144.439,190.889 -132.068,190.889L-9.335,190.889C3.037,190.889 13.102,180.824 13.102,168.452L13.102,150.31L0,150.31L0,168.452Z" style="fill:rgb(130,82,142);fill-rule:nonzero;"/>
        </g>
        <g transform="matrix(1,0,0,1,2744.08,232.072)">
            <path d="M0,-60.255L-125.754,-60.255C-131.416,-60.255 -136.048,-55.622 -136.048,-49.961L-136.048,-10.294C-136.048,-4.632 -131.416,0 -125.754,0L0,0C5.662,0 10.294,-4.632 10.294,-10.294L10.294,-49.961C10.294,-55.622 5.662,-60.255 0,-60.255" style="fill:rgb(130,82,142);fill-rule:nonzero;"/>
        </g>
        <g transform="matrix(1,0,0,1,2649.22,202.262)">
            <path d="M0,-1.163C3.85,-1.163 5.671,-2.878 5.671,-6.102C5.671,-9.342 3.598,-10.504 -0.189,-10.504L-3.413,-10.504L-3.413,-1.163L0,-1.163ZM-10.412,-16.061L0.224,-16.061C7.036,-16.061 12.53,-13.624 12.53,-6.102C12.53,1.175 6.975,4.394 0.414,4.394L-3.413,4.394L-3.413,14.898L-10.412,14.898L-10.412,-16.061Z" style="fill:white;fill-rule:nonzero;"/>
        </g>
        <g transform="matrix(1,0,0,1,2667.12,217.16)">
            <path d="M0,-30.959L7.173,-30.959L15.25,-15.562L18.312,-8.76L18.502,-8.76C18.173,-12.035 17.608,-16.373 17.608,-20.022L17.608,-30.959L24.277,-30.959L24.277,0L17.104,0L9.027,-15.437L5.965,-22.199L5.775,-22.199C6.104,-18.784 6.669,-14.637 6.669,-10.987L6.669,0L0,0L0,-30.959Z" style="fill:white;fill-rule:nonzero;"/>
        </g>
        <g transform="matrix(1,0,0,1,2697.25,201.503)">
            <path d="M0,0.357C0,-9.914 6.824,-15.871 15.089,-15.871C19.582,-15.871 22.773,-13.955 24.858,-11.853L21.169,-7.364C19.632,-8.778 17.978,-9.828 15.324,-9.828C10.559,-9.828 7.173,-6.085 7.173,0.123C7.173,6.486 10.056,10.185 15.883,10.185C17.123,10.185 18.407,9.861 19.161,9.263L19.161,3.918L14.032,3.918L14.032,-1.796L25.378,-1.796L25.378,12.478C23.243,14.568 19.481,16.228 15.162,16.228C6.634,16.228 0,10.785 0,0.357" style="fill:white;fill-rule:nonzero;"/>
        </g>
    </g>
</svg>
