<?xml version="1.0" encoding="UTF-8" standalone="no"?>
<!DOCTYPE svg PUBLIC "-//W3C//DTD SVG 1.1//EN" "http://www.w3.org/Graphics/SVG/1.1/DTD/svg11.dtd">
<svg width="100%" height="100%" viewBox="0 0 190 214" version="1.1" xmlns="http://www.w3.org/2000/svg" xmlns:xlink="http://www.w3.org/1999/xlink" xml:space="preserve" xmlns:serif="http://www.serif.com/" style="fill-rule:evenodd;clip-rule:evenodd;stroke-linejoin:round;stroke-miterlimit:2;">
    <g transform="matrix(1,0,0,1,-2796.86,-575.183)">
        <g transform="matrix(1,0,0,1,2951.37,597.62)">
            <path d="M0,168.452C0,173.599 -4.187,177.787 -9.335,177.787L-132.067,177.787C-137.215,177.787 -141.402,173.599 -141.402,168.452L-141.402,32.511L-116.717,32.511C-103.849,32.511 -93.321,21.982 -93.321,9.114L-93.321,-9.335L-9.335,-9.335C-4.187,-9.335 0,-5.147 0,0L0,72.996L13.102,72.996L13.102,0C13.102,-12.372 3.037,-22.437 -9.335,-22.437L-102.845,-22.437L-154.504,22.664L-154.504,168.452C-154.504,180.824 -144.439,190.889 -132.067,190.889L-9.335,190.889C3.037,190.889 13.102,180.824 13.102,168.452L13.102,150.31L0,150.31L0,168.452Z" style="fill:rgb(67,31,155);fill-rule:nonzero;"/>
        </g>
        <g transform="matrix(1,0,0,1,2976.31,742.101)">
            <path d="M0,-60.255L-125.754,-60.255C-131.416,-60.255 -136.048,-55.622 -136.048,-49.961L-136.048,-10.294C-136.048,-4.632 -131.416,0 -125.754,0L0,0C5.662,0 10.294,-4.632 10.294,-10.294L10.294,-49.961C10.294,-55.622 5.662,-60.255 0,-60.255" style="fill:rgb(67,31,155);fill-rule:nonzero;"/>
        </g>
        <g transform="matrix(1,0,0,1,2878.73,709.217)">
            <path d="M0,4.987L4.841,0.508L14.721,17.973L6.889,17.973L0,4.987ZM0.71,1.275C4.392,1.275 6.369,-0.3 6.369,-3.345C6.369,-6.407 4.392,-7.429 0.71,-7.429L-2.871,-7.429L-2.871,1.275L0.71,1.275ZM-9.87,-12.986L1.279,-12.986C7.846,-12.986 13.229,-10.705 13.229,-3.345C13.229,3.769 7.846,6.832 1.279,6.832L-2.871,6.832L-2.871,17.973L-9.87,17.973L-9.87,-12.986Z" style="fill:white;fill-rule:nonzero;"/>
        </g>
        <g transform="matrix(1,0,0,1,0,569.758)">
            <path d="M2900.04,144.618L2914.94,144.618L2914.94,150.057L2900.04,150.057L2900.04,144.618ZM2903.36,126.473L2911.73,126.473L2921.45,157.432L2914.05,157.432L2910,141.752C2909.14,138.658 2908.31,134.997 2907.48,131.767L2907.29,131.767C2906.54,135.036 2905.72,138.658 2904.86,141.752L2900.79,157.432L2893.63,157.432L2903.36,126.473Z" style="fill:white;fill-rule:nonzero;"/>
        </g>
        <g transform="matrix(1,0,0,1,2921.8,727.19)">
            <path d="M0,-30.959L7.172,-30.959L9.317,-16.499C9.725,-13.235 10.172,-9.972 10.58,-6.708L10.77,-6.708C11.373,-9.972 11.993,-13.274 12.613,-16.499L15.943,-30.959L21.88,-30.959L25.21,-16.499C25.83,-13.353 26.45,-10.011 27.07,-6.708L27.261,-6.708C27.668,-10.011 28.099,-13.313 28.506,-16.499L30.651,-30.959L37.337,-30.959L31.839,0L23.039,0L20.012,-14.062C19.521,-16.453 19.107,-18.935 18.771,-21.248L18.582,-21.248C18.207,-18.935 17.816,-16.453 17.324,-14.062L14.393,0L5.749,0L0,-30.959Z" style="fill:white;fill-rule:nonzero;"/>
        </g>
    </g>
</svg>
