<?xml version="1.0" encoding="UTF-8" standalone="no"?>
<!DOCTYPE svg PUBLIC "-//W3C//DTD SVG 1.1//EN" "http://www.w3.org/Graphics/SVG/1.1/DTD/svg11.dtd">
<svg width="100%" height="100%" viewBox="0 0 190 214" version="1.1" xmlns="http://www.w3.org/2000/svg" xmlns:xlink="http://www.w3.org/1999/xlink" xml:space="preserve" xmlns:serif="http://www.serif.com/" style="fill-rule:evenodd;clip-rule:evenodd;stroke-linejoin:round;stroke-miterlimit:2;">
    <g transform="matrix(1,0,0,1,-1838.65,-65.1538)">
        <g transform="matrix(1,0,0,1,1993.15,87.5908)">
            <path d="M0,168.452C0,173.599 -4.188,177.787 -9.335,177.787L-132.067,177.787C-137.215,177.787 -141.402,173.599 -141.402,168.452L-141.402,32.511L-116.717,32.511C-103.849,32.511 -93.321,21.982 -93.321,9.114L-93.321,-9.335L-9.335,-9.335C-4.188,-9.335 0,-5.147 0,0L0,72.996L13.102,72.996L13.102,0C13.102,-12.372 3.037,-22.437 -9.335,-22.437L-102.845,-22.437L-154.504,22.664L-154.504,168.452C-154.504,180.824 -144.439,190.889 -132.067,190.889L-9.335,190.889C3.037,190.889 13.102,180.824 13.102,168.452L13.102,150.31L0,150.31L0,168.452Z" style="fill:rgb(0,176,86);fill-rule:nonzero;"/>
        </g>
        <g transform="matrix(1,0,0,1,2018.1,232.072)">
            <path d="M0,-60.255L-125.754,-60.255C-131.416,-60.255 -136.048,-55.622 -136.048,-49.961L-136.048,-10.294C-136.048,-4.632 -131.416,0 -125.754,0L0,0C5.662,0 10.294,-4.632 10.294,-10.294L10.294,-49.961C10.294,-55.622 5.662,-60.255 0,-60.255" style="fill:rgb(0,176,86);fill-rule:nonzero;"/>
        </g>
        <g transform="matrix(1,0,0,1,1925.07,202.133)">
            <path d="M0,-0.905L-8.052,-15.932L-0.253,-15.932L2.439,-10.077C3.137,-8.652 3.802,-7.059 4.691,-5.114L4.881,-5.114C5.596,-7.059 6.244,-8.652 6.864,-10.077L9.322,-15.932L16.791,-15.932L8.738,-0.575L17.299,15.027L9.5,15.027L6.445,8.714C5.668,7.116 4.953,5.518 4.126,3.617L3.936,3.617C3.204,5.518 2.506,7.116 1.807,8.714L-1.092,15.027L-8.561,15.027L0,-0.905Z" style="fill:white;fill-rule:nonzero;"/>
        </g>
        <g transform="matrix(1,0,0,1,1946.55,217.16)">
            <path d="M0,-30.959L6.999,-30.959L6.999,-5.87L19.22,-5.87L19.22,0L0,0L0,-30.959Z" style="fill:white;fill-rule:nonzero;"/>
        </g>
        <g transform="matrix(1,0,0,1,1967.83,190.107)">
            <path d="M0,23.147L4.02,18.345C6.221,20.261 9.077,21.58 11.625,21.58C14.546,21.58 15.976,20.43 15.976,18.592C15.976,16.643 14.216,16.018 11.511,14.905L7.488,13.19C4.28,11.885 1.24,9.25 1.24,4.751C1.24,-0.379 5.823,-4.476 12.267,-4.476C15.833,-4.476 19.56,-3.07 22.226,-0.418L18.693,3.992C16.653,2.428 14.714,1.567 12.267,1.567C9.854,1.567 8.318,2.573 8.318,4.343C8.318,6.242 10.343,6.932 13.045,8.008L16.99,9.606C20.771,11.134 23.131,13.652 23.131,18.027C23.131,23.169 18.845,27.623 11.468,27.623C7.439,27.623 3.158,26.098 0,23.147" style="fill:white;fill-rule:nonzero;"/>
        </g>
    </g>
</svg>
