<?xml version="1.0" encoding="UTF-8" standalone="no"?>
<!DOCTYPE svg PUBLIC "-//W3C//DTD SVG 1.1//EN" "http://www.w3.org/Graphics/SVG/1.1/DTD/svg11.dtd">
<svg width="100%" height="100%" viewBox="0 0 190 214" version="1.1" xmlns="http://www.w3.org/2000/svg" xmlns:xlink="http://www.w3.org/1999/xlink" xml:space="preserve" xmlns:serif="http://www.serif.com/" style="fill-rule:evenodd;clip-rule:evenodd;stroke-linejoin:round;stroke-miterlimit:2;">
    <g transform="matrix(1,0,0,1,-3043.04,-65.1538)">
        <g transform="matrix(1,0,0,1,3197.54,87.5908)">
            <path d="M0,168.452C0,173.599 -4.187,177.787 -9.335,177.787L-132.067,177.787C-137.215,177.787 -141.402,173.599 -141.402,168.452L-141.402,32.511L-116.717,32.511C-103.849,32.511 -93.321,21.982 -93.321,9.114L-93.321,-9.335L-9.335,-9.335C-4.187,-9.335 0,-5.147 0,0L0,72.996L13.102,72.996L13.102,0C13.102,-12.372 3.037,-22.437 -9.335,-22.437L-102.845,-22.437L-154.504,22.664L-154.504,168.452C-154.504,180.824 -144.439,190.889 -132.067,190.889L-9.335,190.889C3.037,190.889 13.102,180.824 13.102,168.452L13.102,150.31L0,150.31L0,168.452Z" style="fill:rgb(249,68,13);fill-rule:nonzero;"/>
        </g>
        <g transform="matrix(1,0,0,1,3222.49,232.072)">
            <path d="M0,-60.255L-125.754,-60.255C-131.416,-60.255 -136.048,-55.622 -136.048,-49.961L-136.048,-10.294C-136.048,-4.632 -131.416,0 -125.754,0L0,0C5.662,0 10.294,-4.632 10.294,-10.294L10.294,-49.961C10.294,-55.622 5.662,-60.255 0,-60.255" style="fill:rgb(249,68,13);fill-rule:nonzero;"/>
        </g>
        <g transform="matrix(1,0,0,1,3126.39,190.423)">
            <path d="M0,22.517L13.688,1.649L1.302,1.649L1.302,-4.221L22.32,-4.221L22.32,-0.001L8.632,20.868L22.432,20.868L22.432,26.738L0,26.738L0,22.517Z" style="fill:white;fill-rule:nonzero;"/>
        </g>
        <g transform="matrix(1,0,0,1,0,-450.302)">
            <rect x="3153.67" y="636.503" width="6.999" height="30.959" style="fill:white;"/>
        </g>
        <g transform="matrix(1,0,0,1,3178.38,202.262)">
            <path d="M0,-1.163C3.85,-1.163 5.671,-2.878 5.671,-6.102C5.671,-9.342 3.598,-10.504 -0.189,-10.504L-3.413,-10.504L-3.413,-1.163L0,-1.163ZM-10.412,-16.061L0.224,-16.061C7.036,-16.061 12.53,-13.624 12.53,-6.102C12.53,1.175 6.975,4.394 0.414,4.394L-3.413,4.394L-3.413,14.898L-10.412,14.898L-10.412,-16.061Z" style="fill:white;fill-rule:nonzero;"/>
        </g>
    </g>
</svg>
